<svg width="205" height="80" viewBox="0 0 205 80" fill="none" xmlns="http://www.w3.org/2000/svg">
<path d="M26.848 52L20.128 29.6H25.664L29.024 41.376C29.1733 41.9093 29.3013 42.4533 29.408 43.008C29.536 43.5413 29.632 44.0533 29.696 44.544C29.7813 45.0347 29.8453 45.4933 29.888 45.92C29.9307 46.3253 29.9733 46.6667 30.016 46.944H29.312C29.44 46.1547 29.5467 45.4507 29.632 44.832C29.7387 44.2133 29.856 43.6373 29.984 43.104C30.112 42.5493 30.272 41.9733 30.464 41.376L33.792 32.512H38.144L41.408 41.376C41.664 42.08 41.8773 42.7413 42.048 43.36C42.2187 43.9787 42.3467 44.576 42.432 45.152C42.5387 45.7067 42.624 46.2613 42.688 46.816L42.048 46.912C42.0907 46.528 42.1227 46.176 42.144 45.856C42.1653 45.5147 42.1867 45.1947 42.208 44.896C42.2507 44.576 42.2933 44.2453 42.336 43.904C42.3787 43.5627 42.4427 43.1893 42.528 42.784C42.6133 42.3573 42.7307 41.8773 42.88 41.344L46.208 29.6H51.616L44.896 52H40.736L35.424 39.104L36.032 39.168L31.136 52H26.848ZM60.6008 52.32C58.8301 52.32 57.2514 51.936 55.8648 51.168C54.4994 50.4 53.4114 49.3547 52.6008 48.032C51.8114 46.7093 51.4168 45.1947 51.4168 43.488C51.4168 41.7813 51.8114 40.2667 52.6008 38.944C53.4114 37.6213 54.4994 36.576 55.8648 35.808C57.2514 35.04 58.8301 34.656 60.6008 34.656C62.3714 34.656 63.9394 35.04 65.3048 35.808C66.6914 36.576 67.7794 37.6213 68.5688 38.944C69.3581 40.2667 69.7528 41.7813 69.7528 43.488C69.7528 45.1947 69.3581 46.7093 68.5688 48.032C67.7794 49.3547 66.6914 50.4 65.3048 51.168C63.9394 51.936 62.3714 52.32 60.6008 52.32ZM60.6008 47.904C61.3688 47.904 62.0514 47.712 62.6488 47.328C63.2461 46.944 63.7154 46.4213 64.0568 45.76C64.3981 45.0987 64.5581 44.3413 64.5368 43.488C64.5581 42.6347 64.3981 41.8773 64.0568 41.216C63.7154 40.5333 63.2461 40 62.6488 39.616C62.0514 39.232 61.3688 39.04 60.6008 39.04C59.8328 39.04 59.1394 39.232 58.5208 39.616C57.9234 40 57.4541 40.5333 57.1128 41.216C56.7714 41.8773 56.6114 42.6347 56.6328 43.488C56.6114 44.3413 56.7714 45.0987 57.1128 45.76C57.4541 46.4213 57.9234 46.944 58.5208 47.328C59.1394 47.712 59.8328 47.904 60.6008 47.904ZM72.4608 52V35.008H77.3248L77.5488 40.544L76.5888 39.488C76.8448 38.5707 77.2608 37.7493 77.8368 37.024C78.4341 36.2987 79.1274 35.7227 79.9168 35.296C80.7061 34.8693 81.5488 34.656 82.4448 34.656C82.8288 34.656 83.1808 34.688 83.5008 34.752C83.8421 34.816 84.1514 34.8907 84.4288 34.976L83.0208 40.64C82.7861 40.4907 82.4661 40.3733 82.0608 40.288C81.6768 40.1813 81.2714 40.128 80.8448 40.128C80.3754 40.128 79.9381 40.2133 79.5328 40.384C79.1274 40.5333 78.7861 40.7573 78.5088 41.056C78.2314 41.3547 78.0074 41.7067 77.8368 42.112C77.6874 42.5173 77.6128 42.976 77.6128 43.488V52H72.4608ZM91.3113 47.008L89.4233 43.168L97.3593 35.008H104.111L91.3113 47.008ZM86.3833 52V28.32H91.5033V52H86.3833ZM97.9033 52L91.9193 44.256L95.5353 41.44L103.951 52H97.9033ZM105.743 52V35.008H110.607L110.767 38.08L110.095 38.112C110.351 37.5573 110.671 37.0667 111.055 36.64C111.46 36.2133 111.908 35.8613 112.399 35.584C112.911 35.2853 113.433 35.0613 113.967 34.912C114.521 34.7627 115.076 34.688 115.631 34.688C116.463 34.688 117.22 34.816 117.903 35.072C118.585 35.328 119.183 35.744 119.695 36.32C120.207 36.8747 120.612 37.632 120.911 38.592L120.111 38.528L120.367 38.016C120.644 37.504 120.996 37.0453 121.423 36.64C121.871 36.2133 122.361 35.8613 122.895 35.584C123.428 35.2853 123.983 35.0613 124.559 34.912C125.135 34.7627 125.689 34.688 126.223 34.688C127.567 34.688 128.687 34.9547 129.583 35.488C130.479 36 131.151 36.7787 131.599 37.824C132.068 38.8693 132.303 40.1387 132.303 41.632V52H127.151V42.048C127.151 41.3653 127.055 40.8 126.863 40.352C126.671 39.904 126.383 39.5733 125.999 39.36C125.636 39.1253 125.177 39.008 124.623 39.008C124.175 39.008 123.759 39.0827 123.375 39.232C123.012 39.3813 122.692 39.584 122.415 39.84C122.159 40.096 121.956 40.3947 121.807 40.736C121.657 41.0773 121.583 41.4613 121.583 41.888V52H116.431V42.016C116.431 41.376 116.335 40.832 116.143 40.384C115.951 39.936 115.663 39.5947 115.279 39.36C114.895 39.1253 114.447 39.008 113.935 39.008C113.487 39.008 113.071 39.0827 112.687 39.232C112.324 39.3813 112.004 39.584 111.727 39.84C111.471 40.096 111.268 40.3947 111.119 40.736C110.969 41.0773 110.895 41.4507 110.895 41.856V52H105.743ZM142.188 52.288C140.758 52.288 139.478 51.9147 138.348 51.168C137.238 50.4 136.353 49.3547 135.692 48.032C135.03 46.688 134.7 45.1733 134.7 43.488C134.7 41.76 135.03 40.2347 135.692 38.912C136.353 37.5893 137.26 36.5547 138.412 35.808C139.564 35.04 140.876 34.656 142.348 34.656C143.158 34.656 143.894 34.7733 144.556 35.008C145.238 35.2427 145.836 35.5733 146.348 36C146.86 36.4053 147.297 36.8853 147.66 37.44C148.022 37.9733 148.289 38.5493 148.46 39.168L147.404 39.04V35.008H152.492V52H147.308V47.904L148.46 47.872C148.289 48.4693 148.012 49.0347 147.628 49.568C147.244 50.1013 146.774 50.5707 146.22 50.976C145.665 51.3813 145.046 51.7013 144.364 51.936C143.681 52.1707 142.956 52.288 142.188 52.288ZM143.596 47.968C144.385 47.968 145.068 47.7867 145.644 47.424C146.22 47.0613 146.668 46.5493 146.988 45.888C147.308 45.2053 147.468 44.4053 147.468 43.488C147.468 42.5707 147.308 41.7813 146.988 41.12C146.668 40.4373 146.22 39.9147 145.644 39.552C145.068 39.168 144.385 38.976 143.596 38.976C142.828 38.976 142.156 39.168 141.58 39.552C141.025 39.9147 140.588 40.4373 140.268 41.12C139.948 41.7813 139.788 42.5707 139.788 43.488C139.788 44.4053 139.948 45.2053 140.268 45.888C140.588 46.5493 141.025 47.0613 141.58 47.424C142.156 47.7867 142.828 47.968 143.596 47.968ZM157.778 52V30.72H162.898V52H157.778ZM154.77 39.488V35.008H166.194V39.488H154.77ZM176.419 52.32C174.542 52.32 172.91 51.9467 171.523 51.2C170.137 50.432 169.059 49.3973 168.291 48.096C167.523 46.7733 167.139 45.2693 167.139 43.584C167.139 42.2827 167.353 41.088 167.779 40C168.206 38.912 168.803 37.9733 169.571 37.184C170.339 36.3733 171.246 35.7547 172.291 35.328C173.358 34.88 174.521 34.656 175.779 34.656C176.974 34.656 178.062 34.8693 179.043 35.296C180.046 35.7227 180.91 36.32 181.635 37.088C182.361 37.856 182.915 38.7627 183.299 39.808C183.683 40.8533 183.854 41.9947 183.811 43.232L183.779 44.608H170.243L169.507 41.728H179.619L179.075 42.336V41.696C179.033 41.1627 178.862 40.6933 178.563 40.288C178.286 39.8613 177.913 39.5307 177.443 39.296C176.974 39.0613 176.441 38.944 175.843 38.944C175.011 38.944 174.297 39.1147 173.699 39.456C173.123 39.776 172.686 40.256 172.387 40.896C172.089 41.5147 171.939 42.2827 171.939 43.2C171.939 44.1387 172.131 44.96 172.515 45.664C172.921 46.3467 173.497 46.88 174.243 47.264C175.011 47.648 175.918 47.84 176.963 47.84C177.689 47.84 178.329 47.7333 178.883 47.52C179.459 47.3067 180.078 46.944 180.739 46.432L183.139 49.824C182.478 50.4 181.774 50.8693 181.027 51.232C180.281 51.5947 179.513 51.8613 178.723 52.032C177.955 52.224 177.187 52.32 176.419 52.32Z" fill="#1D394C"/>
</svg>
