<svg width="398" height="438" viewBox="0 0 398 438" fill="none" xmlns="http://www.w3.org/2000/svg">
<path d="M-4.89719e-05 395.906C-4.89719e-05 418.945 89.0954 437.618 198.997 437.618C308.905 437.618 398 418.945 398 395.906C398 372.869 308.905 354.194 198.997 354.194C89.0954 354.194 -4.89719e-05 372.869 -4.89719e-05 395.906Z" fill="#0092D2"/>
<path d="M277.792 67.2321C294.183 70.9412 311.632 80.4982 320.319 95.3053C335.296 120.839 336.506 156.407 332.417 184.444C329.229 206.274 321.93 236.144 307.163 253.468C290.746 272.741 254.263 264.682 233.275 261.425C209.04 257.661 190.514 255.856 177.305 233.015C164.041 210.076 161.063 175.849 159.087 149.127C157.775 131.458 158.858 112.023 166.64 95.6261C187.648 51.3841 237.751 58.1689 277.792 67.2321Z" fill="#00B1C3"/>
<path d="M250.272 298.485H233.73L276.602 411.795C276.602 411.795 278.75 414.7 283.777 414.676C283.777 414.676 288.939 415.21 286.667 411.41L250.272 298.485Z" fill="#914428"/>
<path d="M233.731 298.485L276.602 411.795C276.602 411.795 278.75 414.7 283.777 414.676C283.777 414.676 288.002 415.102 287.1 412.357C286.745 412.736 286.312 413.057 285.761 413.234C283.536 413.975 280.999 413.214 279.433 411.832L240.978 298.485H233.731Z" fill="#B4B4B4"/>
<path d="M293.465 270.907H276.923L319.797 384.218C319.797 384.218 321.944 387.123 326.971 387.098C326.971 387.098 332.134 387.635 329.862 383.837L293.465 270.907Z" fill="#914428"/>
<path d="M276.923 270.907L319.797 384.218C319.797 384.218 321.944 387.123 326.971 387.098C326.971 387.098 331.197 387.531 330.294 384.781C329.939 385.161 329.504 385.477 328.955 385.659C326.728 386.4 324.195 385.637 322.625 384.257L284.175 270.907H276.923Z" fill="#B4B4B4"/>
<path d="M100.849 284.982H117.391L74.5187 398.29C74.5187 398.29 72.3674 401.197 67.342 401.173C67.342 401.173 62.1817 401.705 64.4496 397.905L100.849 284.982Z" fill="#914428"/>
<path d="M117.391 284.982L74.5187 398.29C74.5187 398.29 72.3674 401.197 67.342 401.173C67.342 401.173 63.1166 401.599 64.017 398.852C64.3744 399.232 64.807 399.55 65.3578 399.734C67.5829 400.469 70.1219 399.712 71.6854 398.328L110.14 284.983H117.391V284.982Z" fill="#B4B4B4"/>
<path d="M156.491 270.907H173.035L130.161 384.218C130.161 384.218 128.011 387.123 122.986 387.098C122.986 387.098 117.824 387.635 120.096 383.837L156.491 270.907Z" fill="#914428"/>
<path d="M173.035 270.907L130.161 384.218C130.161 384.218 128.011 387.123 122.986 387.098C122.986 387.098 118.761 387.531 119.663 384.781C120.016 385.161 120.449 385.477 121 385.659C123.228 386.4 125.767 385.637 127.33 384.257L165.783 270.907H173.035Z" fill="#B4B4B4"/>
<path d="M285.864 234.819C266.739 231.983 247.874 227.805 228.718 224.755C203.774 220.785 167.948 212.714 142.686 216.852C126.287 219.548 112.172 226.511 98.8055 233.141C83.78 240.594 69.8241 248.442 67.7198 262.298C65.7398 275.398 73.4271 285.056 88.5812 292.212C123.882 308.882 175.866 316.333 217.772 318.236C250.375 319.718 289.24 313.259 312.401 295.852C325.784 285.797 329.105 268.936 325.596 255.845C321.324 239.881 306.97 237.948 285.864 234.819Z" fill="#53BEC6"/>
<path d="M285.864 234.819C266.739 231.983 247.874 227.805 228.718 224.755C203.774 220.785 167.948 212.714 142.686 216.852C126.287 219.548 112.172 226.511 98.8055 233.141C83.78 240.594 69.8241 248.442 67.7198 262.298C65.7398 275.398 73.4271 285.056 88.5812 292.212C123.882 308.882 175.866 316.333 217.772 318.236C250.375 319.718 289.24 313.259 312.401 295.852C325.784 285.797 329.105 268.936 325.596 255.845C321.324 239.881 306.97 237.948 285.864 234.819Z" fill="#00B1C3"/>
<path d="M192.575 196.36C192.575 196.36 221.342 197.566 258.674 196.597C273.344 219.024 282.209 238.307 279.448 261.116C279.448 261.116 273.622 279.572 245.139 281.308L187.73 272.373L137.005 274.247C137.005 274.247 87.6176 220.159 119.306 210.681L180.522 218.611L192.575 196.36Z" fill="#004D9D"/>
<path d="M272.062 237.927C269.213 235.673 266.925 232.734 264.529 230.005C262.175 227.322 259.724 224.725 257.232 222.171C255.02 219.904 253.048 217.546 251.145 215.027C250.092 213.633 249.2 212.646 247.78 211.613C246.593 210.751 246.494 210.136 245.692 209.02C245.602 208.895 245.994 208.884 246.064 208.942C247.056 209.78 248.542 210.34 249.65 211.077C251.031 211.996 252.478 212.818 253.875 213.713C257.007 215.718 259.569 218.133 262.171 220.757C264.69 223.295 267.13 225.911 269.514 228.577C271.807 231.141 274.538 233.917 275.71 237.173C276.278 238.749 272.764 238.482 272.062 237.927Z" fill="#0D3373"/>
<path d="M220.348 89.4203L246.464 89.9632L247.06 61.4595L220.945 60.9124C220.945 60.9124 223.259 83.4313 220.348 89.4203Z" fill="#F7B6A0"/>
<path d="M221.683 82.2576C227.609 81.7737 233.234 81.5454 239.05 79.8408C241.84 79.0241 244.39 78.0035 246.743 76.6444L247.059 61.4595L220.944 60.9124C220.944 60.9124 222.226 73.4087 221.683 82.2576Z" fill="#F29381"/>
<path d="M204.12 40.5469C205.764 44.6865 207.454 49.4998 210.326 53.1268C213.612 57.2764 218.423 57.5727 220.638 52.3921C222.726 47.5156 222.652 41.4979 221.752 36.4866C221.257 33.7495 220.338 30.6507 217.774 28.7873C213.786 25.8824 208.513 26.7891 205.545 30.2306C202.759 33.46 202.673 36.9015 204.12 40.5469Z" fill="#55240D"/>
<path d="M208.323 47.5078C208.601 52.4862 209.334 57.4447 210.648 62.258C211.977 67.1386 213.794 76.2854 219.301 78.3244C221.004 78.9593 222.389 78.9102 224.355 78.7879C231.861 78.3202 239.848 73.3278 244.62 67.7573C253.514 57.3778 253.492 32.1928 244.58 22.43C236.447 13.522 210.587 18.1084 208.85 32.3156C208.25 37.2156 208.042 42.3638 208.323 47.5078Z" fill="#F7B6A0"/>
<path d="M213.937 59.6938C214.471 59.9368 215.576 60.4818 216.162 60.6307C218.372 61.1799 220.397 60.9286 222.583 60.3224C225.658 59.4691 228.717 57.5628 231.977 58.6628C233.943 59.3243 235.635 59.7612 237.711 59.665C240.338 59.5449 242.676 57.7645 243.721 55.3927C244.523 53.5554 244.678 51.1573 245.741 49.4935C247.101 47.3725 248.999 45.9297 251.271 45.1987C251.224 53.9023 250.904 66.4603 246.515 71.5814C241.742 77.1518 229.664 82.2467 222.165 82.7186C220.205 82.8408 218.815 82.8858 217.113 82.2572C211.606 80.2181 211.977 67.1376 210.648 62.2574C210.342 61.1387 210.077 60.0162 209.831 58.8833C211.06 58.6873 212.344 58.969 213.937 59.6938Z" fill="#703218"/>
<path d="M246.364 44.7613C245.186 42.9036 247.838 40.5014 249.382 39.821C250.918 39.1438 253.781 39.0968 254.738 40.7757C254.815 40.9158 254.815 41.0563 254.738 41.1964C254.704 41.2497 254.669 41.302 254.634 41.3547C254.593 41.199 254.551 41.0433 254.51 40.8881C255.102 41.5491 255.289 42.6486 255.546 43.4956C255.893 44.64 256.029 45.8173 255.792 46.9931C255.768 47.1107 255.46 47.1295 255.42 47.0176C255.014 45.9062 254.666 44.7759 254.231 43.6733C254.017 43.1293 253.71 42.6089 253.443 42.0884C253.549 41.7116 253.391 41.6171 252.968 41.8036C252.662 41.8052 252.361 41.7655 252.066 41.6845C250.864 41.3563 251.048 41.8031 252.388 41.2941C251.903 41.4786 251.465 42.0048 251.059 42.3241C250.524 42.7447 250.171 43.3023 249.865 43.8975C249.52 44.5721 249.387 44.6557 248.705 45.0643C248.122 45.4139 246.769 45.3998 246.364 44.7613Z" fill="#F49C81"/>
<path d="M244.62 40.4429C244.945 41.6881 245.21 47.4033 245.609 48.508C246.005 49.6163 248.516 47.8548 248.516 47.8548C250.283 45.9929 247.997 41.7906 251.088 41.1128C254.437 40.376 249.547 61.2719 249.622 63.556C252.188 60.8309 261.204 46.7731 263.1 37.0364C264.505 29.8288 262.87 25.4728 261.204 22.6823C253.11 9.15132 250.191 10.002 242.685 11.0513C239.258 11.531 236.637 19.2612 235.384 22.6473C234.039 26.2728 236.505 29.0402 238.989 31.3677C242.093 34.2804 243.091 34.7356 244.62 40.4429Z" fill="#55240D"/>
<path d="M254 41.1755C257.507 44.2089 256.174 53.8861 249.84 57.4828C248.08 55.7908 247.786 50.9243 247.415 48.5425C247.049 46.1993 246.815 43.9456 248.115 41.8491C248.515 41.2042 251.418 38.9489 254 41.1755Z" fill="#F7B6A0"/>
<path d="M250.558 48.0607C250.666 48.4986 250.722 48.9469 250.885 49.3697C250.938 49.504 251.032 49.5353 251.148 49.5959C250.831 49.4951 250.499 49.4977 250.154 49.6043C249.843 49.7872 249.759 49.8185 249.904 49.6984C250.025 49.5891 250.165 48.9119 250.204 48.5738C250.335 47.42 249.782 45.8377 251.196 45.3674C251.021 45.4793 250.845 45.5911 250.67 45.7029C251.001 45.2723 251.418 45.0894 251.976 45.1647C252.217 45.1966 252.427 45.2796 252.627 45.4207C252.835 45.5681 252.627 45.4479 252.422 45.3883C252.632 45.4495 252.789 45.5498 252.965 45.6716C253.751 46.214 253.334 47.9379 253.184 48.7018C252.957 49.8546 252.411 50.7252 251.143 50.8574C250.352 50.9394 249.621 50.7696 248.976 50.3097C248.164 49.7313 248.551 48.89 248.684 48.0612C248.793 47.3902 250.403 47.4352 250.558 48.0607Z" fill="#F29381"/>
<path d="M249.722 45.7254C250.045 43.6566 253.113 44.1462 254.229 45.1479C256.06 46.7903 255.001 50.3939 252.92 51.2634C252.678 51.3642 251.84 51.4949 251.729 51.1092C251.476 50.2313 252.126 49.193 252.328 48.3313C252.482 47.6693 252.366 46.8813 252.163 46.2453C252.061 45.9913 251.923 45.7572 251.751 45.5435C251.812 45.521 251.874 45.4991 251.936 45.4766C251.65 45.4944 251.419 45.6115 251.241 45.8267C251.019 46.0859 249.631 46.3054 249.722 45.7254Z" fill="#F29381"/>
<path d="M223.046 42.6262C224.247 37.8735 233.82 36.9496 234.514 42.334C234.613 43.0964 234.566 43.8144 234.245 44.4676C233.737 45.4997 233.068 44.9275 232.347 44.7367C231.794 44.5899 231.235 44.8 230.66 44.7399C229.191 44.5868 227.691 44.3401 226.215 44.5758C225.566 44.6787 224.986 44.9411 224.327 44.9604C223.962 44.9714 223.623 44.6024 223.228 44.6296C222.835 44.6563 222.994 42.8336 223.046 42.6262Z" fill="#55240D"/>
<path d="M214.975 44.5826C214.731 44.6949 214.523 44.9426 214.324 45.1166C213.984 45.414 213.246 45.3073 212.824 45.3528C212.102 45.4301 211.392 45.5901 210.69 45.7703C209.984 45.9522 209.281 45.786 208.539 45.9365C208.092 46.0274 207.838 42.4265 208.539 42.0696C208.439 42.2583 208.339 42.4474 208.239 42.636C208.267 42.4568 208.33 42.2912 208.426 42.1391C208.679 41.8219 209.5 41.6328 209.817 41.4054C210.513 40.9059 211.681 41.1008 212.491 41.1483C213.786 41.2246 214.849 41.5894 215.118 43.0149C215.175 43.3112 215.342 44.4133 214.975 44.5826Z" fill="#55240D"/>
<path d="M213.651 48.7301C213.749 50.0077 213.279 51.0795 212.597 51.1328C211.92 51.184 211.289 50.1958 211.191 48.9182C211.095 47.6463 211.563 46.5688 212.246 46.5197C212.922 46.4684 213.555 47.4608 213.651 48.7301Z" fill="#7F482E"/>
<path d="M228.072 48.5179C228.174 49.7977 227.701 50.8715 227.017 50.9227C226.339 50.9739 225.714 49.9837 225.612 48.7081C225.52 47.4362 225.99 46.3629 226.666 46.3096C227.343 46.2563 227.974 47.2481 228.072 48.5179Z" fill="#7F482E"/>
<path d="M215.243 62.6546C216.781 63.5267 218.419 64.4124 220.249 63.9547C221.466 63.6506 222.458 62.05 223.685 61.5358C224.273 61.2886 226.205 61.0467 226.297 62.0657C226.406 63.2644 224.8 64.1867 223.963 64.8864C223.025 65.6708 221.317 65.9848 220.132 65.9974C217.961 66.0204 213.763 65.8589 213.478 63.0125C213.413 62.3557 214.935 62.48 215.243 62.6546Z" fill="#F18C7E"/>
<path d="M217.264 46.6377C217.879 48.8748 218.936 50.57 217.893 52.8044C217.363 53.9404 215.141 57.7216 218.28 57.2545C220.157 56.9754 222.062 58.7662 219.358 59.1691C217.057 59.5114 213.655 59.1179 212.559 56.7189C211.904 55.2876 213.213 53.8312 214.049 52.8243C215.6 50.9561 215.194 49.0357 215.234 46.7731C215.246 46.1079 217.107 46.0635 217.264 46.6377Z" fill="#F29381"/>
<path d="M208.999 127.303C212.495 105.989 201.783 104.881 201.783 104.881C189.73 101.794 184.124 120.129 184.124 120.129C184.124 120.129 175.433 160.694 175.549 178.877C175.549 178.877 188.329 186.812 194.363 175.479L208.999 127.303Z" fill="#F7B6A0"/>
<path d="M242.294 85.8909L282.646 100.739L260.43 200.22H207.252L192.622 102.715L223.408 85.8909H242.294Z" fill="#F7B6A0"/>
<path d="M221.395 85.8909L194.428 99.4527L205.575 199.495C216.324 204.96 222.348 201.483 238.968 201.459C244.279 201.448 260.027 204.36 262.34 198.781C263.74 195.391 267.69 188.252 267.569 184.652C267.451 181.041 271.397 175.187 271.695 171.586C271.989 167.991 271.924 164.411 273.683 161.177C276.968 155.162 276.919 146.244 278.415 139.481C279.928 132.616 280.96 129.215 280.96 122.159C280.96 118.409 284.177 114.211 285.1 110.565C286.072 106.684 285.529 102.014 281.699 100.265C278.299 98.7092 274.429 97.7356 270.903 96.4355L247.721 87.6153C247.721 87.6153 226.55 94.3657 221.395 85.8909Z" fill="#007AB9"/>
<path d="M205.174 162.469L211.747 126.666C211.747 126.666 221.306 105.847 204.661 94.8595C204.661 94.8595 186.707 97.6824 183.379 114.598L174.383 150.342C174.384 150.343 175.284 159.244 205.174 162.469Z" fill="#007AB9"/>
<path d="M265.837 242.475C261.152 234.612 259.731 224.739 253.769 217.64C248.076 210.865 237.776 203.976 228.509 204.454C222.791 204.749 214.655 212.81 208.782 211.559C201.726 210.061 189.46 216.956 183.594 212.947C178.888 209.726 192.983 183.693 191.552 177.934C189.984 171.635 190.529 166.144 192.622 160.306C195.18 153.17 198.361 154.572 200.015 147.169C201.446 140.767 202.895 134.538 207.89 129.9C222.447 116.373 247.42 118.692 264.321 125.546C266.928 126.603 268.448 127.428 269.347 128.497C270.741 130.159 275.471 127.856 275.552 132.5C275.695 140.561 277.14 139.665 277.126 147.73C277.116 153.507 278.312 163.339 279.447 168.947C281.129 177.265 280.404 187.667 282.645 195.883C286.611 210.418 287.981 239.451 285.523 254.878C285.524 254.878 271.85 256.341 265.837 242.475Z" fill="#007AB9"/>
<path d="M208.06 208.993C234.286 205.254 298.572 211.998 301.144 181.877C303.246 157.24 294.943 118.401 283.639 109.565C275.247 103.002 263.969 106.648 259.462 116.493C254.443 127.458 269.813 165.284 272.299 181.024C272.299 181.024 249.754 196.421 202.138 201.349L208.06 208.993Z" fill="#F7B6A0"/>
<path d="M309.811 173.471L290.344 111.61C286.39 101.161 279.672 99.4057 278.303 99.4057C257.507 99.4036 255.674 125.08 255.674 125.08L265.743 170.445C265.743 170.445 288.389 183.418 309.811 173.471Z" fill="#007AB9"/>
<path d="M211.967 203.874C210.888 202.445 204.939 201.531 202.138 201.349C194.488 200.844 187.903 201.33 180.789 203.161C178.344 203.784 173.035 205.191 170.779 206.436C169.404 207.193 166.716 207.816 167.169 209.52C168.242 210.104 174.433 208.869 178.507 207.911C172.561 209.648 171.173 211.277 171.053 212.065C172.504 213.666 179.471 210.518 184.374 209.455C185.958 209.11 175.072 213.212 180.391 213.655C181.545 213.751 189.038 211.592 192.586 210.791C192.204 211.157 187.497 213.608 187.611 214.029C187.715 215.127 192.414 213.965 194.766 213.335C197.923 212.478 216.227 209.512 211.967 203.874Z" fill="#F7B6A0"/>
<path d="M136.988 188.828C135.684 187.599 129.669 187.689 126.878 187.974C119.248 188.748 112.839 190.326 106.127 193.31C103.82 194.333 98.8196 196.603 96.7983 198.205C95.5693 199.183 93.026 200.24 93.7529 201.849C94.9104 202.241 100.812 199.995 104.671 198.375C99.0944 201.075 97.9944 202.915 98.0106 203.713C99.7048 205.048 106.051 200.785 110.711 198.92C112.212 198.318 102.161 204.176 107.48 203.729C108.631 203.629 115.665 200.253 119.029 198.873C118.713 199.298 114.482 202.496 114.667 202.896C114.945 203.957 119.39 202.033 121.595 201.016C124.574 199.65 142.132 193.68 136.988 188.828Z" fill="#F7B6A0"/>
<path d="M176.376 165.993L124.055 191.735L129.299 196.36C129.299 196.36 185.396 188.142 193.375 178.863C193.375 178.863 187.838 163.337 176.376 165.993Z" fill="#F7B6A0"/>
<path d="M127.555 216.175H218.136V220.504H127.555V216.175Z" fill="#001521"/>
<path d="M101.398 220.505H185.691L178.293 161H94L101.398 220.505Z" fill="#0B2230"/>
<path d="M188.688 220.505H185.691L178.293 161H181.299L188.688 220.505Z" fill="#1D394C"/>
<path d="M133.301 190.985C132.373 187.378 134.545 183.702 138.152 182.774C141.758 181.847 145.434 184.019 146.362 187.625C147.289 191.232 145.118 194.908 141.511 195.836C137.904 196.763 134.228 194.591 133.301 190.985Z" fill="#1D394C"/>
<path d="M216.736 90.2553C218.173 89.1877 219.444 89.0769 220.549 89.9229C221.063 90.1492 221.574 90.3833 222.082 90.6242C223.434 91.2513 224.84 91.7691 226.319 91.9886C228.759 92.3497 231.346 92.5582 233.787 92.2551C236.045 91.9745 237.953 92.4563 240.167 91.5392C241.033 91.1807 242.007 90.7946 242.95 90.7172C243.812 90.5918 243.914 90.6164 243.257 90.7888C243.886 90.5051 244.509 90.26 245.158 90.0259C246.038 89.7092 249.199 89.6408 249.203 91.1635C249.213 93.8505 244.876 93.9346 242.996 94.5805C239.793 95.682 236.01 95.6517 232.686 95.5017C229.735 95.3685 226.339 95.0785 223.501 94.2131C221.631 93.6425 216.581 92.3309 216.494 89.8676C217.22 90.1382 217.945 90.4094 218.671 90.6801C217.932 90.7324 217.311 90.7674 216.736 90.2553Z" fill="#0059A6"/>
<path d="M272.788 99.5375C271.968 101.451 271.072 103.126 269.848 104.829C268.302 106.979 267.262 109.146 266.141 111.538C263.907 116.306 265.012 122.617 265.552 127.633C265.846 130.36 266.592 133.028 266.992 135.739C267.356 138.213 267.492 140.647 267.759 143.123C268.056 145.886 268.642 148.613 268.966 151.375C269.324 154.429 268.743 157.461 268.77 160.512C268.774 160.949 267.638 160.932 267.49 160.597C266.439 158.216 265.795 155.779 265.251 153.24C264.587 150.144 263.469 147.169 262.756 144.092C262.064 141.105 260.925 138.258 259.983 135.343C259.104 132.621 258.656 129.532 258.302 126.701C258.05 124.682 257.338 122.093 257.703 120.085C258.232 117.162 258.274 114.344 259.194 111.458C261.067 105.58 265.742 102.382 270.481 99.0609C270.901 98.7662 273.216 98.5415 272.788 99.5375Z" fill="#0059A6"/>
<path d="M213.961 90.5161C213.539 92.1632 212.477 93.2381 211.616 94.6537C210.465 96.5443 208.827 99.515 208.472 101.696C208.123 103.837 207.941 106.004 207.572 108.143C207.195 110.324 207.46 112.262 207.449 114.438C207.422 119.184 207.184 123.902 207.16 128.658C207.149 130.89 206.925 133.13 206.914 135.343C206.901 137.643 205.761 140.303 204.996 142.475C204.834 142.933 203.298 142.921 203.316 142.363C203.457 137.806 203.361 133.213 203.338 128.658C203.313 123.634 203.502 118.649 203.474 113.631C203.462 111.45 203.302 109.567 203.658 107.369C204.005 105.22 204.157 103.039 204.483 100.886C204.785 98.8968 206.501 96.6906 207.467 94.963C208.649 92.8477 210.452 91.8475 212.215 90.2851C212.469 90.0599 214.119 89.9 213.961 90.5161Z" fill="#0059A6"/>
<path d="M208.345 150.143C208.625 154.166 207.512 158.664 205.541 162.194C204.023 164.915 203.987 170.591 205.915 173.207C206.582 174.111 204.355 174.474 203.951 174.47C199.273 174.421 200.492 168.411 200.726 165.263C200.935 162.462 202.891 160.16 203.998 157.686C205.175 155.057 206.186 152.511 207.785 150.106C207.871 149.976 208.33 149.936 208.345 150.143Z" fill="#0059A6"/>
<path d="M254.417 207.652C255.682 208.134 257.118 207.992 258.333 208.647C259.829 209.454 261.212 210.239 262.432 211.434C264.588 213.546 265.993 216.352 266.617 219.272C266.89 220.549 267.052 221.858 267.208 223.161C267.444 225.117 268.223 227.005 268.912 228.846C269.379 230.09 269.997 231.287 270.715 232.404C271.279 233.283 272.19 233.727 272.729 234.623C274.049 236.823 267.906 236.717 266.847 235.839C265.164 234.445 264.206 233.389 263.299 231.307C262.109 228.579 261.347 225.414 261.223 222.456C261.088 219.255 260.545 216.566 258.861 213.791C258.034 212.428 256.953 211.372 255.689 210.423C254.669 209.657 254.352 208.817 253.6 207.885C253.354 207.581 254.309 207.61 254.417 207.652Z" fill="#0059A6"/>
<path d="M181.894 263.163L201.524 271.157L196.472 286.419L176.48 279.671L181.894 263.163Z" fill="#F6AD96"/>
<path d="M155.223 262.173L134.107 264.039L134.443 280.108L155.539 279.544L155.223 262.173Z" fill="#F6AD96"/>
<path d="M140.518 280.155C131.408 282.661 105.415 280.556 95.958 276.97C84.5026 272.622 85.2927 249.698 99.7178 252.982C112.788 255.958 126.519 261.3 139.844 262.379C139.844 262.379 147.78 268.533 140.518 280.155Z" fill="#8CD0E5"/>
<path d="M140.518 280.155C137.26 273.443 139.101 259.44 139.101 259.44L150.481 253.457C164.534 242.529 181.212 235.427 194.967 224.139C205.621 215.397 216.043 200.806 231.528 202.355C242.001 203.404 249.217 211.272 255.22 219.173C265.233 232.335 279.448 243.073 279.448 261.116C279.448 276.358 259.227 287.797 248.327 286.076C240.26 284.802 228.16 274.645 223.677 268.524L211.65 253.686C211.65 253.686 206.87 269.262 160.431 279.036C160.431 279.036 146.631 281.989 140.518 280.155Z" fill="#004D9D"/>
<path d="M223.201 203.372C220.233 204.615 217.475 207.504 215.079 209.619C212.051 212.291 208.697 214.507 205.411 216.83C199.76 220.824 194.615 225.571 189.482 230.192C183.525 235.556 177.836 240.92 171.252 245.553C167.714 248.042 164.075 250.381 160.438 252.719C158.459 253.992 156.425 255.18 154.417 256.406C151.977 257.896 149.846 258.531 147.163 259.376C146.798 259.492 144.725 259.493 145.188 258.633C145.657 257.764 145.303 257.622 145.905 256.826C146.554 255.968 147.311 255.451 148.188 254.838C150.102 253.499 152.018 252.159 153.963 250.865C157.79 248.319 161.656 245.844 165.405 243.181C172.12 238.411 178.122 232.827 184.461 227.596C189.945 223.071 195.704 218.735 201.751 214.987C205.558 212.629 209.211 210.121 212.931 207.63C215.995 205.577 218.932 203.806 222.559 202.964C222.784 202.911 223.751 203.141 223.201 203.372Z" fill="#0D3373"/>
<path d="M193.563 265.747C190.312 265.678 187.484 264.482 184.576 263.12C181.002 261.447 177.417 259.642 174.045 257.59C170.517 255.444 166.683 253.399 163.573 250.672C161.044 248.454 158.322 246.471 155.785 244.26C148.501 237.913 141.138 231.561 134.133 224.903C130.173 221.139 126.14 217.679 121.554 214.686C119.431 213.302 117.208 212.063 114.989 210.84C112.865 209.669 109.855 208.759 108.408 206.756C107.101 204.945 112.181 204.985 112.776 205.11C115.328 205.646 117.621 207.204 119.896 208.436C122.082 209.62 124.232 210.865 126.345 212.178C130.798 214.945 134.895 218.112 138.602 221.826C142.674 225.907 146.983 229.692 151.326 233.478C154.549 236.288 157.566 239.361 160.896 242.042C163.437 244.087 166.492 245.905 169.383 247.396C173.165 249.348 176.691 251.682 180.328 253.892C183.642 255.904 186.887 258.044 190.148 260.142C191.927 261.286 194.768 262.443 195.527 264.484C195.901 265.491 194.213 265.761 193.563 265.747Z" fill="#0D3373"/>
<path d="M220.04 266.326C218.22 264.037 215.957 262.108 213.199 261.076C211.451 260.422 208.711 263.097 207.395 264.106C204.057 266.664 197.79 270.92 193.619 267.693C193.2 267.369 193.188 267.029 193.319 266.571C193.627 265.498 195.375 265.199 196.293 264.951C197.758 264.555 199.197 263.513 200.45 262.688C203.023 260.992 205.508 259.184 208.559 258.477C214.89 257.012 219.817 260.442 222.711 265.965C223.224 266.945 220.533 266.946 220.04 266.326Z" fill="#0D3373"/>
<path d="M91.4223 203.106C70.2259 205.864 75.7091 225.541 83.1372 232.357C103.149 250.708 132.006 264.523 157.178 274.247C158.032 274.576 181.894 283.48 185.886 285.07C180.928 273.094 191.996 264.751 191.996 264.749C191.996 264.749 163.818 251.109 144.912 231.238C144.912 231.238 116.668 197.76 91.4223 203.106Z" fill="#004D9D"/>
<path d="M190.653 284.676C198.62 289.752 224.078 295.392 234.178 294.745C246.409 293.957 252.39 271.816 237.644 270.711C224.278 269.711 209.583 270.768 196.524 267.882C196.524 267.882 187.127 271.432 190.653 284.676Z" fill="#8CD0E5"/>
<path d="M240.969 17.728C241.016 21.9695 232.053 31.7183 227.572 31.2856C228.421 29.267 228.372 26.9641 228.799 24.9742C224.99 27.7317 219.579 31.8468 215.348 33.7495C213.514 34.5803 208.626 36.2603 207.044 34.9189C206.013 34.0473 206.692 32.2529 206.074 31.2632C204.918 29.4117 205.02 30.5243 203.222 29.4812C193.367 23.7352 203.187 8.09101 210.705 3.75381C218.28 -0.620487 229.837 -1.0286 238.042 1.78587C241.524 2.982 245.153 4.93322 246.921 8.19343C248.372 10.8715 249.911 20.1061 245.598 20.9349L240.969 17.728Z" fill="#55240D"/>
</svg>
