<svg width="391" height="400" viewBox="0 0 391 400" fill="none" xmlns="http://www.w3.org/2000/svg">
<path d="M391 358.957C391 381.59 303.471 399.936 195.503 399.936C87.5293 399.936 0 381.59 0 358.957C0 336.324 87.5293 317.979 195.503 317.979C303.471 317.979 391 336.325 391 358.957Z" fill="#ADC3F3"/>
<path d="M118.093 38.6643C101.991 42.3081 84.848 51.6954 76.3145 66.2389C61.6026 91.3226 60.4121 126.268 64.4292 153.808C67.5607 175.255 74.739 204.601 89.2403 221.621C105.368 240.552 141.209 232.636 161.833 229.434C185.638 225.74 203.842 223.964 216.813 201.526C229.843 178.991 232.77 145.367 234.711 119.115C236.001 101.755 234.941 82.6637 227.292 66.5561C206.652 23.0894 157.43 29.7575 118.093 38.6643Z" fill="#6969AE"/>
<path d="M145.13 265.846H161.382L119.263 377.163C119.263 377.163 117.152 380.014 112.215 379.989C112.215 379.989 107.143 380.519 109.374 376.785L145.13 265.846Z" fill="#914428"/>
<path d="M161.382 265.846L119.263 377.163C119.263 377.163 117.152 380.014 112.215 379.989C112.215 379.989 108.063 380.412 108.948 377.71C109.298 378.085 109.723 378.401 110.259 378.578C112.45 379.304 114.941 378.553 116.482 377.198L154.259 265.846H161.382Z" fill="#B4B4B4"/>
<path d="M102.696 238.756H118.948L76.8293 350.071C76.8293 350.071 74.7184 352.924 69.7814 352.899C69.7814 352.899 64.7089 353.427 66.94 349.693L102.696 238.756Z" fill="#914428"/>
<path d="M118.948 238.756L76.8294 350.07C76.8294 350.07 74.7184 352.924 69.7814 352.899C69.7814 352.899 65.6294 353.322 66.5149 350.623C66.8651 350.994 67.2901 351.308 67.8256 351.488C70.0166 352.211 72.5074 351.464 74.0485 350.108L111.826 238.756H118.948Z" fill="#B4B4B4"/>
<path d="M291.925 252.58H275.673L317.792 363.895C317.792 363.895 319.903 366.748 324.84 366.726C324.84 366.726 329.912 367.251 327.682 363.519L291.925 252.58Z" fill="#914428"/>
<path d="M275.673 252.58L317.792 363.895C317.792 363.895 319.903 366.748 324.841 366.726C324.841 366.726 328.993 367.144 328.107 364.447C327.757 364.82 327.332 365.132 326.792 365.313C324.606 366.038 322.11 365.287 320.574 363.932L282.797 252.579L275.673 252.58Z" fill="#B4B4B4"/>
<path d="M237.261 238.756H221.009L263.127 350.07C263.127 350.07 265.238 352.924 270.175 352.899C270.175 352.899 275.253 353.427 273.017 349.693L237.261 238.756Z" fill="#914428"/>
<path d="M221.009 238.756L263.127 350.07C263.127 350.07 265.238 352.924 270.175 352.899C270.175 352.899 274.327 353.322 273.442 350.623C273.092 350.994 272.667 351.308 272.126 351.488C269.94 352.211 267.449 351.464 265.908 350.108L228.131 238.756H221.009Z" fill="#B4B4B4"/>
<path d="M110.164 203.297C128.953 200.514 147.486 196.407 166.304 193.413C190.81 189.511 226.011 181.582 250.822 185.652C266.935 188.296 280.801 195.136 293.932 201.654C308.693 208.972 322.405 216.683 324.465 230.291C326.421 243.164 318.863 252.654 303.976 259.682C269.295 276.059 218.228 283.377 177.059 285.249C145.03 286.701 106.848 280.359 84.0929 263.261C70.9417 253.379 67.6855 236.82 71.1322 223.956C75.3289 208.272 89.4303 206.374 110.164 203.297Z" fill="#53BEC6"/>
<path d="M110.164 203.297C128.953 200.514 147.486 196.407 166.304 193.413C190.81 189.511 226.011 181.582 250.822 185.652C266.935 188.296 280.801 195.136 293.932 201.654C308.693 208.972 322.405 216.683 324.465 230.291C326.421 243.164 318.863 252.654 303.976 259.682C269.295 276.059 218.228 283.377 177.059 285.249C145.03 286.701 106.848 280.359 84.0929 263.261C70.9417 253.379 67.6855 236.82 71.1322 223.956C75.3289 208.272 89.4303 206.374 110.164 203.297Z" fill="#6969AE"/>
<path d="M187.594 14.0759C187.964 20.3163 194.987 21.7665 199.734 22.5247C204.101 23.2198 207.038 26.5439 207.658 31.1087C208.213 35.1981 200.135 36.8434 198.364 40.44C196.633 43.9467 194.052 47.491 194.457 51.6348C194.892 56.0718 196.483 58.7227 192.581 62.1869C189.55 64.8707 186.509 66.9463 185.823 71.2087C184.152 81.6258 199.339 91.9479 203.971 100.417C205.032 102.35 206.102 106.432 207.933 107.773C209.724 109.09 212.34 107.69 213.951 106.609C219.148 103.132 222.274 96.9952 220.999 90.8523C219.368 82.9738 215.522 76.2231 218.838 68.1275C221.324 62.0647 228.277 58.753 229.988 52.3304C230.839 49.1388 230.703 45.6475 229.163 42.6962C227.537 39.5822 224.321 37.7592 222.345 34.8778C219.644 30.9357 219.553 25.9889 218.278 21.534C215.962 13.4101 208.959 7.9505 202.151 3.59362C197.964 0.920045 192.381 0.442094 189.325 4.51663C188.055 6.20712 187.78 15.0739 188.295 16.8747L187.594 14.0759Z" fill="#B7793E"/>
<path d="M307.552 168.045L307.567 161.504C270.586 157.553 253.668 151.64 253.668 151.64C246.35 147.88 244.989 143.286 241.828 136.4C234.71 120.896 227.291 105.409 220.809 89.6192C211.79 76.6384 199.884 86.6151 196.008 86.6151C203.581 106.624 212.39 123.191 223.655 146.377C228.847 157.066 238.111 165.933 249.131 167.328C249.131 167.328 282.801 169.935 307.552 168.045Z" fill="#F6AD96"/>
<path d="M321.479 153.61C323.324 156.867 312.74 158.125 311.059 159.208C313.45 158.753 322.404 156.337 323.545 158.54C324.09 159.908 315.837 160.944 314.335 161.452C315.801 161.459 321.589 160.552 322.004 162.247C322.014 163.503 316.331 164.035 314.636 164.493C315.071 164.62 320.348 164.106 320.013 165.178C319.763 166.243 316.167 167.159 314.346 167.477C306.122 168.912 297.073 170.746 297.618 165.04C298.018 160.781 298.359 158.442 307.978 150.727C309.634 149.396 310.079 153.245 307.333 156.592C308.263 157.137 321.259 153.22 321.479 153.61Z" fill="#F6AD96"/>
<path d="M306.471 158.891C306.567 158.81 306.663 158.73 306.76 158.65C307.35 158.157 305.661 157.868 305.244 158.216C305.114 158.325 305.008 158.456 304.901 158.588C304.801 158.712 304.907 158.885 305.003 158.966C305.046 158.773 305.008 158.779 304.889 158.987C304.8 159.096 304.723 159.212 304.658 159.336C304.523 159.569 304.421 159.789 304.467 160.058C304.546 160.533 304.056 160.983 303.719 161.247C302.869 161.911 301.77 161.783 300.848 162.221C299.94 162.652 300.864 163.268 301.446 163.329C303.027 163.495 304.988 162.806 306.202 161.796C306.751 161.339 307.202 160.607 306.958 159.893C306.865 159.618 307.232 159.194 307.176 158.876C307.114 158.512 306.67 158.396 306.373 158.294C306.539 158.436 306.704 158.577 306.869 158.718C306.885 158.621 306.895 158.531 306.88 158.433C306.785 157.805 305.042 157.882 305.125 158.433C305.139 158.528 305.154 158.623 305.168 158.718C305.24 159.198 306.201 159.116 306.471 158.891Z" fill="#F2937C"/>
<path d="M207.443 81.0082C207.443 81.0082 189.885 83.1237 196.833 107.76L214.941 153.96C214.941 153.96 238.562 150.441 244.014 136.347L224.271 93.0202C224.271 93.0202 219.618 82.7639 207.443 81.0082Z" fill="#E474AB"/>
<path d="M173.052 72.8396L136.946 86.1254L156.83 175.135H204.411L207.218 80.9178L189.95 72.8396H173.052Z" fill="#F7B6A0"/>
<path d="M192.096 73.8925H170.732V48.3837H192.096C192.096 48.3837 189.815 68.4822 192.096 73.8925Z" fill="#F7B6A0"/>
<path d="M191.336 70.4381C190.47 62.7197 192.096 48.3832 192.096 48.3832H170.732V56.657C174.803 64.748 182.127 71.4889 191.336 70.4381Z" fill="#F2937C"/>
<path d="M166.184 74.7426C161.057 76.6307 152.578 80.3804 147.451 82.2762C144.299 83.4395 140.838 84.3122 137.791 85.7029C134.37 87.2712 133.879 91.4478 134.755 94.9192C137.561 106.049 140.657 117.119 143.069 128.344C144.729 136.04 146.23 143.776 147.376 151.564C148.401 158.507 150.097 165.683 148.836 172.711C147.881 178.026 171.276 176.242 176.028 176.248C190.9 176.265 196.122 177.393 205.742 172.508L207.437 81.02L195.787 75.5702C195.787 75.5702 184.513 90.5145 166.184 74.7426Z" fill="#E474AB"/>
<path d="M209.994 82.2212C210.789 99.0887 214.426 109.466 214.921 120.721C215.107 124.853 214.176 128.319 212.701 132.136C208.964 141.816 207.368 153.711 206.693 158.423C203.581 180.133 200.145 179.685 188.77 177.241C182.042 175.796 180.631 150.23 179.426 143.999C177.57 134.389 179.09 122.834 186.339 115.696C191.506 110.597 198.219 109.166 200.906 101.825C202.871 96.4531 193.882 88.8898 199.765 86.631C199.87 86.861 203.412 78.8598 203.347 79.1052" fill="#E474AB"/>
<path d="M206.352 39.1668C204.752 46.9653 200.625 60.3737 194.197 64.2229C186.403 68.8878 170.587 55.3464 166.5 48.1106C161.382 39.0565 163.623 24.9206 167.465 15.5734C171.852 4.92631 184.117 0.0288299 194.782 5.17115C205.437 10.3114 208.453 28.9423 206.352 39.1668Z" fill="#F7B6A0"/>
<path d="M167.885 15.1514C168.771 13.1483 169.931 11.3623 171.307 9.81403L169.852 35.8906L168.091 45.6372L166.665 48.5587C166.475 48.2507 166.295 47.9433 166.14 47.6506C161.242 38.4815 163.819 24.4027 167.885 15.1514Z" fill="#F2937C"/>
<path d="M161.227 27.8365C157.831 30.6954 158.981 39.9892 165.009 43.5211C166.709 41.9225 167.055 37.2659 167.439 34.9825C167.824 32.7417 168.079 30.5876 166.864 28.5598C166.484 27.9397 163.733 25.7358 161.227 27.8365Z" fill="#F7B6A0"/>
<path d="M164.457 34.3727C164.348 34.7654 164.281 35.1694 164.159 35.5585C164.117 35.695 164.064 35.8214 163.938 35.8937C163.52 36.1335 164.736 35.7844 165.112 36.0744C165.185 36.1309 164.99 35.8444 164.944 35.7279C164.858 35.5061 164.84 35.2536 164.814 35.0195C164.704 33.9989 165.277 32.1827 163.875 31.8757C164.048 31.986 164.222 32.0964 164.395 32.2068C163.893 31.5584 162.918 31.4552 162.328 32.0743C162.554 31.9896 162.778 31.9044 163.004 31.8197C161.809 32.0286 161.679 32.8095 161.735 33.8495C161.777 34.6334 161.874 35.4779 162.221 36.192C162.707 37.1935 164.078 37.326 165.033 37.0996C165.511 36.9862 165.921 36.7187 166.268 36.3788C166.725 35.9302 166.342 35.0297 166.265 34.4917C166.183 33.9193 164.605 33.8347 164.457 34.3727Z" fill="#F2937C"/>
<path d="M165.289 32.2463C165.027 30.2159 162.014 30.7016 160.931 31.6467C159.145 33.2052 160.115 36.6935 162.128 37.5334C162.376 37.6371 163.174 37.7592 163.298 37.3819C163.567 36.5682 162.947 35.5077 162.771 34.6991C162.666 34.2125 162.744 33.6945 162.822 33.2119C162.868 32.9239 162.963 32.6554 163.11 32.4064C163.194 32.2858 163.279 32.1652 163.363 32.0445C162.915 31.9388 163.059 32.0389 163.795 32.3453C164.016 32.6082 165.363 32.8186 165.289 32.2463Z" fill="#F2937C"/>
<path d="M179.67 1.81277C180.3 2.54534 180.711 3.49862 180.931 4.35388C182.011 6.43452 184.783 14.7433 185.348 16.0416C186.879 19.5555 183.922 21.6367 181.326 23.322C180.506 23.8549 179.676 24.3801 178.86 24.9206C176.399 26.5434 174.038 28.3042 172.432 30.8458C171.372 32.524 169.856 37.4491 167.195 37.1288C167.555 34.4727 167.641 28.9228 163.884 27.4643C163.434 27.1892 161.753 27.0095 159.802 29.6805C159.802 29.6805 157.035 2.58538 179.67 1.81277Z" fill="#B7793E"/>
<path d="M185.893 17.4122L179.67 1.81274C183.827 -1.96404 195.347 1.33272 195.347 1.33272C199.334 2.47341 213.75 13.1082 216.531 25.7738C216.531 25.7738 220.393 44.342 202.615 52.1553C206.772 41.0005 208.183 33.4772 205.141 25.0381C202.025 25.4406 195.077 23.2722 192.916 21.6941C190.54 19.961 187.308 18.2377 185.347 16.0415" fill="#B7793E"/>
<path d="M205.742 172.509C205.742 172.509 180.976 173.549 148.837 172.712C136.206 192.023 128.578 208.625 130.949 228.264C130.949 228.264 135.966 244.156 160.492 245.65L209.919 237.956L253.593 239.569C253.593 239.569 296.117 192.999 268.83 184.84L216.122 191.668L205.742 172.509Z" fill="#69B4E4"/>
<path d="M208.328 179.627C206.139 179.309 203.873 179.261 201.727 178.712C199.141 178.051 196.663 178.12 194.041 177.727C188.857 176.95 183.551 176.772 178.316 176.521C173.097 176.27 167.964 177.253 162.751 177.267C161.632 177.27 160.518 177.349 159.403 177.435C158.234 177.526 157.024 178.127 155.891 178.163C153.324 178.245 150.704 178.031 148.428 179.453C150.622 179.737 152.816 180.021 155.01 180.305C154.915 180.189 154.819 180.074 154.724 179.958C153.204 178.114 149.222 178.114 147.701 179.958C147.606 180.074 147.511 180.189 147.415 180.305C145.637 182.462 152.344 182.786 153.2 182.484C155.203 181.775 157.401 182.407 159.465 181.779C161.488 181.163 163.482 181.324 165.576 181.209C170.67 180.929 175.668 180.331 180.776 180.596C183.128 180.718 185.469 180.75 187.823 180.806C190.175 180.862 192.552 181.439 194.897 181.385C199.42 181.282 203.752 182.653 208.328 182.009C210.572 181.693 210.561 179.95 208.328 179.627Z" fill="#102E4D"/>
<path d="M204.882 97.9932C205.712 102.649 208.088 106.044 210.48 110.04C211.729 112.125 212.975 114.383 213.613 116.742C214.295 119.259 213.199 121.638 212.058 123.819C211.109 125.634 210.537 127.629 209.39 129.338C207.409 132.288 204.065 133.809 201.401 135.99C200.626 136.625 201.138 137.41 201.869 137.768C203.123 138.382 204.846 138.36 206.102 137.768C202.92 137.989 202.214 138.132 203.985 138.197C204.498 138.2 205.002 138.134 205.496 137.997C206.771 137.631 207.875 136.802 208.969 136.085C210.731 134.932 212.408 133.639 213.888 132.139C215.532 130.473 216.466 128.616 217.328 126.484C218.237 124.238 219.369 122.273 219.726 119.834C220.119 117.159 218.643 114.528 217.38 112.302C214.416 107.078 210.345 102.642 206.768 97.8684C206.498 97.507 204.759 97.3078 204.882 97.9932Z" fill="#CF5490"/>
<path d="M178.199 185.188C180.891 184.973 183.375 182.724 185.986 183.469C188.911 184.303 191.085 186.618 194.147 187.333C197.009 187.999 200.084 187.941 202.85 186.905C204.875 186.147 209.081 184.043 207.612 181.365C206.728 179.753 203.708 180.128 202.36 180.685C203.101 180.535 203.842 180.384 204.582 180.234C204.043 180.231 203.515 180.301 202.996 180.444C202.263 180.655 201.506 180.977 200.888 181.425C199.84 182.185 199.134 183.206 197.948 183.792C196.105 184.704 193.268 182.629 191.68 181.975C188.952 180.852 186.015 180.403 183.084 180.777C180.47 181.111 179.258 183.314 176.991 184.173C175.747 184.644 177.761 185.223 178.199 185.188Z" fill="#C84947"/>
<path d="M162.938 81.7659C163.517 84.9133 167.939 86.7645 170.583 87.8523C174.72 89.554 178.886 90.0453 183.319 90.1167C187.531 90.185 191.179 89.3318 194.939 87.5248C197.376 86.3543 201.842 83.7577 202.019 80.7099C202.065 79.9188 200.924 79.3839 200.315 79.2546C198.655 78.9019 198.341 78.8244 196.843 79.2546C195.352 79.6822 194.786 81.0118 193.784 82.0523C191.871 84.0375 188.918 85.6618 186.278 86.3948C183.137 87.2665 179.018 86.6279 175.918 85.8815C172.047 84.9497 168.932 82.8008 165.329 81.2797C164.955 81.1226 162.769 80.8495 162.938 81.7659Z" fill="#CF5490"/>
<path d="M212.864 129.129C210.828 132.883 209.631 136.975 208.196 140.983C207.272 143.563 206.563 146.24 206.012 148.921C205.257 152.597 204.688 156.311 204.264 160.039C204.024 162.151 203.785 164.273 203.943 166.396C204.02 167.438 204.134 168.475 204.279 169.509C204.436 170.619 204.892 171.44 205.101 172.509C205.186 172.939 206.347 172.963 206.382 172.509C206.513 170.797 207.048 168.919 207.275 167.182C207.553 165.065 207.706 162.961 207.887 160.833C208.208 157.062 208.762 153.311 209.435 149.588C210.673 142.743 212.292 135.963 213.885 129.198C213.962 128.871 212.997 128.883 212.864 129.129Z" fill="#CF5490"/>
<path d="M226.026 177.549L226.171 184.435C202.636 188.746 183.762 189.842 142.408 184.265C131.404 182.782 126.066 180.048 124.635 168.255C121.249 140.462 129.858 97.7236 135.095 90.2501C135.55 88.3964 148.076 79.1 152.508 95.0424C152.508 95.0424 153.759 121.779 147.541 155.73C147.541 155.73 144.345 162.68 152.743 162.68C152.743 162.68 190.055 174.072 226.026 177.549Z" fill="#F7B6A0"/>
<path d="M222.99 176.931L244.014 175.375L261.997 181.028C261.997 181.028 265.499 182.644 263.618 184.435L226.172 184.497C226.172 184.497 220.889 183.484 222.99 176.931Z" fill="#F7B6A0"/>
<path d="M141.133 84.8973C141.133 84.8973 129.068 85.2875 121.605 113.448L117.608 148.984C117.608 148.984 145.5 159.191 154.639 153.971L156.595 98.4608C156.595 98.4608 156.01 83.384 141.133 84.8973Z" fill="#E474AB"/>
<path d="M188.95 41.4405C188.744 42.4759 186.603 42.921 184.168 42.4358C181.727 41.9533 179.915 40.7253 180.121 39.6945C180.326 38.6591 182.467 38.214 184.908 38.6966C187.344 39.1791 189.155 40.4096 188.95 41.4405Z" fill="#F39D94"/>
<path d="M205.127 44.6469C204.922 45.6798 203.166 46.2003 201.2 45.8127C199.234 45.4226 197.809 44.2722 198.014 43.2367C198.219 42.2039 199.975 41.6813 201.941 42.0709C203.906 42.4611 205.332 43.614 205.127 44.6469Z" fill="#F39D94"/>
<path d="M202.18 36.6386C201.305 36.521 200.405 37.6237 200.175 39.0899C199.934 40.5581 200.455 41.8409 201.33 41.9513C202.2 42.0663 203.101 40.9657 203.341 39.4954C203.566 38.0288 203.051 36.7459 202.18 36.6386Z" fill="#7F482E"/>
<path d="M187.109 33.642C186.233 33.5296 185.338 34.6277 185.098 36.098C184.868 37.5688 185.383 38.8491 186.259 38.9646C187.134 39.0719 188.034 37.9738 188.264 36.5061C188.499 35.0354 187.984 33.757 187.109 33.642Z" fill="#7F482E"/>
<path d="M195.229 35.6647C194.184 36.4517 194.329 38.0061 194.567 39.155C194.857 40.5534 196.04 41.5617 196.342 42.9215C196.813 45.034 193.1 45.2239 191.791 45.1973C192.247 45.3672 192.703 45.5376 193.159 45.708C193.127 45.6654 193.094 45.6223 193.062 45.5797C192.567 44.9252 191.34 45.0104 190.728 45.4303C190.674 45.4678 190.62 45.5048 190.566 45.5422C189.697 46.1388 191.45 46.5946 191.791 46.5884C193.889 46.5504 196.802 46.2019 198.171 44.4098C198.991 43.3358 198.051 42.0139 197.441 41.1289C196.849 40.2711 196.365 39.4487 196.154 38.4142C196.008 37.7037 195.809 36.5163 196.178 35.8613C196.388 35.4865 195.396 35.5389 195.229 35.6647Z" fill="#F2937C"/>
<path d="M188.59 50.357C188.59 50.357 191.766 54.1112 195.608 51.5326" stroke="#EE756D" stroke-width="4.989" stroke-miterlimit="10" stroke-linecap="round" stroke-linejoin="round"/>
<path d="M183.677 32.1749C184.817 31.7745 186.125 31.3248 187.302 31.811C188.466 32.2925 189.127 33.425 190.205 34.0302C190.667 34.2895 193.162 34.4999 193.006 33.4619C192.73 31.622 189.808 30.4259 188.18 30.1369C185.976 29.7462 183.984 30.1718 182.144 31.4239C181.331 31.9773 183.323 32.2997 183.677 32.1749Z" fill="#B7793E"/>
<path d="M207.308 35.3567C206.177 33.927 204.762 33.3027 202.954 33.1385C201.226 32.9814 198.501 33.2257 197.357 34.676C196.704 35.503 199.052 35.7273 199.375 35.6652C200.329 35.4809 201.153 35.0087 202.093 34.8218C203.246 34.5928 204.487 35.329 205.435 35.8911C205.753 36.0795 207.819 36.003 207.308 35.3567Z" fill="#B7793E"/>
<path d="M150.858 88.1911C150.615 89.3954 152.011 91.3042 152.295 92.5557C152.729 94.4706 152.72 96.4644 152.968 98.4054C153.617 103.484 152.641 109.006 152.419 114.111C152.235 118.375 152.375 122.672 152.344 126.94C152.326 129.52 152.286 132.098 152.242 134.677C152.201 137.069 152.163 140.556 153.644 142.487C154.017 142.973 155.257 143.1 155.692 142.617C157.396 140.727 157.436 138.037 157.847 135.591C158.278 133.027 158.279 130.355 158.426 127.76C158.696 122.982 159.038 118.188 159.156 113.404C159.287 108.049 159.976 102.516 159.217 97.1959C158.703 93.5983 157.992 88.4006 153.868 87.3446C153.029 87.13 151.091 87.0299 150.858 88.1911Z" fill="#CF5490"/>
<path d="M276.198 188.158H184V192.569H276.198V188.158Z" fill="#B2B2B2"/>
<path d="M302.828 192.57H217.021L224.547 132H310.354L302.828 192.57Z" fill="white"/>
<path d="M213.965 192.57H217.021L224.547 132H221.491L213.965 192.57Z" fill="#DADADA"/>
<path d="M270.552 160.826C270.552 164.617 267.476 167.689 263.689 167.689C259.893 167.689 256.825 164.617 256.825 160.826C256.825 157.038 259.893 153.963 263.689 153.963C267.476 153.964 270.552 157.038 270.552 160.826Z" fill="#DADADA"/>
<path d="M237.907 229.174L256.089 230.78L255.799 244.616L237.637 244.126L237.907 229.174Z" fill="#F6AD96"/>
<path d="M250.567 244.654C258.411 246.814 280.791 245.001 288.934 241.915C298.794 238.171 298.113 218.432 285.698 221.261C274.442 223.822 262.618 228.419 251.147 229.349C251.147 229.349 244.314 234.649 250.567 244.654Z" fill="#EA5353"/>
<path d="M250.567 244.654C253.368 238.873 251.787 226.818 251.787 226.818L241.983 221.666C229.888 212.257 215.531 206.144 203.681 196.425C194.512 188.899 185.538 176.338 172.207 177.672C163.193 178.572 156.98 185.35 151.808 192.148C143.189 203.483 130.948 212.727 130.948 228.264C130.948 241.385 148.356 251.234 157.745 249.754C164.683 248.656 175.112 239.909 178.969 234.64L189.324 221.866C189.324 221.866 193.441 235.277 233.419 243.691C233.419 243.691 245.305 246.237 250.567 244.654Z" fill="#69B4E4"/>
<path d="M179.333 178.569C181.898 179.7 184.235 182.294 186.337 184.135C188.957 186.429 191.827 188.342 194.642 190.374C199.48 193.867 203.896 197.977 208.306 201.983C213.422 206.631 218.335 211.213 224.022 215.194C230.35 219.623 237.236 224.98 244.768 226.832C245.239 226.948 247.001 227.013 246.708 226.101C246.204 224.529 246.004 223.935 244.52 222.887C242.886 221.733 241.245 220.588 239.594 219.459C236.338 217.23 232.987 215.147 229.763 212.867C223.95 208.754 218.744 203.941 213.256 199.429C208.495 195.515 203.482 191.8 198.245 188.547C194.917 186.479 191.694 184.31 188.423 182.154C185.714 180.369 183.154 178.888 179.963 178.169C179.746 178.12 178.791 178.33 179.333 178.569Z" fill="#3D94C0"/>
<path d="M214.941 230.025L198.044 236.91L202.39 250.049L219.603 244.236L214.941 230.025Z" fill="#F6AD96"/>
<path d="M207.398 248.548C200.54 252.92 178.615 257.772 169.926 257.217C159.401 256.539 154.244 237.475 166.945 236.525C178.45 235.662 191.106 236.578 202.346 234.091C202.346 234.091 210.434 237.145 207.398 248.548Z" fill="#EA5353"/>
<path d="M204.897 232.373C207.605 232.468 210.031 231.504 212.457 230.403C215.59 228.983 218.718 227.436 221.684 225.694C227.465 222.298 232.653 218.373 237.674 213.946C243.674 208.655 249.748 203.408 255.607 197.957C259.217 194.597 262.746 191.383 266.87 188.646C268.763 187.39 270.754 186.278 272.741 185.178C274.592 184.154 277.427 183.353 278.565 181.503C279.545 179.91 275.674 179.614 274.972 179.743C270.705 180.524 266.545 183.483 262.869 185.732C258.861 188.185 255.182 191.003 251.861 194.332C248.363 197.839 244.664 201.093 240.933 204.347C238.143 206.781 235.53 209.443 232.645 211.763C230.414 213.556 227.678 215.116 225.124 216.383C221.78 218.042 218.7 220.129 215.506 222.062C212.638 223.797 209.854 225.692 207.047 227.526C205.594 228.476 203.132 229.452 202.895 231.393C202.796 232.214 204.425 232.357 204.897 232.373Z" fill="#3D94C0"/>
<path d="M277.499 200.165C279.465 200.165 279.465 198.557 277.499 198.557C275.533 198.557 275.533 200.165 277.499 200.165Z" fill="#69B4E4"/>
<path d="M292.841 178.314C311.089 180.692 306.367 197.633 299.969 203.5C282.741 219.3 257.895 231.195 236.22 239.569C235.485 239.852 214.94 247.517 211.504 248.888C215.776 238.578 206.247 231.393 206.247 231.393C206.247 231.393 230.508 219.65 246.78 202.537C246.78 202.537 271.101 173.714 292.841 178.314Z" fill="#69B4E4"/>
<path d="M182.263 232.768C183.524 231.229 185.048 229.855 186.8 228.899C188.656 227.887 189.611 228.749 191.205 229.886C194.347 232.128 196.995 234.407 200.969 234.951C202.298 235.133 204.044 235.027 205.125 234.122C206.423 233.036 204.86 231.949 203.805 231.654C201.37 230.974 199.386 229.494 197.278 228.147C195.043 226.717 192.882 225.841 190.239 225.51C185.42 224.904 181.689 228.388 179.639 232.414C179.137 233.399 181.78 233.357 182.263 232.768Z" fill="#3D94C0"/>
<path d="M137.514 208.357C139.883 206.595 141.764 204.24 143.7 202.014C145.796 199.604 147.985 197.276 150.211 194.987C152.156 192.987 153.861 190.932 155.497 188.682C156.406 187.432 157.134 186.55 158.387 185.63C159.537 184.787 159.318 184.494 160.035 183.409C160.122 183.277 159.734 183.283 159.669 183.334C157.631 184.917 154.959 185.973 152.784 187.397C149.994 189.225 147.698 191.236 145.358 193.597C143.105 195.871 140.926 198.218 138.799 200.611C136.962 202.678 134.746 204.948 133.93 207.617C133.444 209.206 136.794 208.893 137.514 208.357Z" fill="#3D94C0"/>
<path d="M178.635 28.7626C176.674 35.2576 172.537 40.1848 172.152 47.2579C171.652 56.3146 176.359 61.8322 179.485 69.683C182.587 77.4886 179.72 81.1206 176.064 87.9812C171.211 97.0676 179.31 101.617 179.18 110.294C179.055 118.818 170.972 117.957 164.699 117.09C155.59 115.829 151.203 108.061 150.123 99.7217C149.652 96.1348 148.202 95.5321 144.055 96.0753C140.033 96.6004 139.038 98.3063 136.401 94.5793C132.325 88.8169 131.049 81.5559 133.985 75.0604C136.981 68.4375 142.969 64.4082 142.018 56.5897C141.133 49.2738 142.013 45.3847 148.521 41.4102C154.409 37.8085 155.639 34.352 155.054 27.4515C154.544 21.439 156.305 18.2423 160.621 14.0605C163.163 11.602 168.96 7.30004 172.597 9.42072C177.46 12.2647 180.136 23.7876 178.635 28.7626Z" fill="#B7793E"/>
</svg>
