<svg width="389" height="403" viewBox="0 0 389 403" fill="none" xmlns="http://www.w3.org/2000/svg">
<path d="M389 364.073C389 385.476 306.225 402.826 204.121 402.826C102.012 402.826 19.2364 385.476 19.2364 364.073C19.2364 342.669 102.012 325.32 204.121 325.32C306.225 325.32 389 342.669 389 364.073Z" fill="#5775B8"/>
<path d="M278.982 58.7181C294.209 62.1645 310.421 71.0434 318.491 84.7998C332.399 108.519 333.53 141.567 329.731 167.611C326.77 187.893 319.981 215.645 306.267 231.74C291.016 249.643 257.127 242.157 237.623 239.129C215.11 235.633 197.891 233.956 185.625 212.735C173.302 191.426 170.534 159.627 168.698 134.802C167.482 118.384 168.485 100.33 175.714 85.0974C195.232 43.9916 241.781 50.298 278.982 58.7181Z" fill="#D4D4E4"/>
<path d="M253.418 273.563H238.044L277.875 378.832C277.875 378.832 279.872 381.531 284.54 381.509C284.54 381.509 289.342 382.006 287.228 378.475L253.418 273.563Z" fill="#914428"/>
<path d="M238.044 273.563L277.875 378.832C277.875 378.832 279.872 381.531 284.54 381.509C284.54 381.509 288.467 381.907 287.63 379.354C287.298 379.704 286.896 380.002 286.39 380.173C284.318 380.856 281.963 380.15 280.505 378.869L244.78 273.563H238.044V273.563Z" fill="#B4B4B4"/>
<path d="M293.547 247.943H278.172L318.004 353.214C318.004 353.214 320 355.913 324.67 355.891C324.67 355.891 329.466 356.388 327.357 352.857L293.547 247.943Z" fill="#914428"/>
<path d="M278.173 247.943L318.004 353.214C318.004 353.214 320.001 355.913 324.67 355.891C324.67 355.891 328.596 356.289 327.759 353.737C327.428 354.089 327.025 354.385 326.52 354.553C324.448 355.239 322.092 354.531 320.635 353.252L284.909 247.943H278.173Z" fill="#B4B4B4"/>
<path d="M114.591 261.017H129.96L90.1287 366.286C90.1287 366.286 88.1324 368.987 83.4636 368.964C83.4636 368.964 78.6667 369.458 80.7765 365.929L114.591 261.017Z" fill="#914428"/>
<path d="M129.96 261.017L90.1289 366.286C90.1289 366.286 88.1326 368.987 83.4637 368.964C83.4637 368.964 79.5373 369.361 80.3747 366.809C80.7058 367.161 81.1078 367.457 81.619 367.627C83.6861 368.313 86.0465 367.604 87.499 366.322L123.224 261.017H129.96Z" fill="#B4B4B4"/>
<path d="M166.286 247.943H181.656L141.824 353.214C141.824 353.214 139.828 355.913 135.159 355.891C135.159 355.891 130.362 356.388 132.472 352.857L166.286 247.943Z" fill="#914428"/>
<path d="M181.655 247.943L141.824 353.214C141.824 353.214 139.828 355.913 135.158 355.891C135.158 355.891 131.232 356.289 132.069 353.737C132.4 354.089 132.803 354.385 133.309 354.553C135.381 355.239 137.741 354.531 139.194 353.252L174.919 247.943H181.655Z" fill="#B4B4B4"/>
<path d="M286.479 214.414C268.712 211.777 251.185 207.896 233.389 205.062C210.213 201.377 176.93 193.877 153.461 197.725C138.224 200.225 125.116 206.694 112.693 212.858C98.7333 219.779 85.7673 227.071 83.8181 239.943C81.9733 252.115 89.116 261.086 103.199 267.735C135.991 283.223 184.285 290.146 223.218 291.913C253.503 293.287 289.616 287.288 311.135 271.117C323.572 261.777 326.651 246.114 323.392 233.947C319.428 219.117 306.088 217.321 286.479 214.414Z" fill="#53BEC6"/>
<path d="M286.479 214.414C268.712 211.777 251.185 207.896 233.389 205.062C210.213 201.377 176.93 193.877 153.461 197.725C138.224 200.225 125.116 206.694 112.693 212.858C98.7333 219.779 85.7673 227.071 83.8181 239.943C81.9733 252.115 89.116 261.086 103.199 267.735C135.991 283.223 184.285 290.146 223.218 291.913C253.503 293.287 289.616 287.288 311.135 271.117C323.572 261.777 326.651 246.114 323.392 233.947C319.428 219.117 306.088 217.321 286.479 214.414Z" fill="#D4D4E4"/>
<path d="M70.2655 244.406L42.4306 242.649L40.3776 232.646L70.984 225.513L70.2655 244.406Z" fill="#F7B6A0"/>
<path d="M66.5186 244.7C68.2546 247.186 76.2776 248.028 79.2012 248.314C83.9982 248.782 88.7097 248.799 93.4732 248.109C102.892 246.739 111.648 247.344 121.142 248.026C130.296 248.679 139.36 250.833 148.579 251.131C156.739 251.394 165.595 251.457 173.968 250.478C182.322 249.501 190.199 246.207 198.52 245.35C202.824 244.908 200.838 243.001 199.916 238.992C199.239 236.038 199.915 238.992 199.073 236.062C197.091 229.174 194.759 222.023 189.678 216.737C187.015 213.967 183.718 212.019 179.81 211.697L61.9958 225.555C61.9958 225.555 60.0612 235.437 66.5186 244.7Z" fill="#69B4E4"/>
<path d="M65.3816 245.921C67.7575 248.08 70.9369 247.99 73.8498 248.835C77.6608 249.941 81.6223 249.952 85.5401 250.212C87.6447 250.351 89.7657 250.423 91.8741 250.344C93.7879 250.271 95.6268 249.652 97.5275 249.568C101.646 249.387 105.694 248.077 109.82 248.415C118.273 249.106 126.678 250.112 135.122 250.856C138.8 251.18 142.267 252.523 145.855 252.564C147.922 252.588 151.54 253.959 153.219 252.215C154.229 251.168 153.111 250.332 152.047 250.024C151.172 249.77 150.281 249.758 149.381 249.713C148.372 249.663 150.75 250.024 150.959 250.133C150.738 250.972 150.517 251.811 150.296 252.651C147.571 253.332 149.221 252.854 150.337 252.845C151.721 252.834 153.104 252.813 154.488 252.784C159.106 252.685 163.72 252.453 168.328 252.129C173.796 251.746 179.251 251.157 184.667 250.306C187.578 249.848 190.466 249.254 193.333 248.575C195.852 247.977 198.487 247.439 200.645 245.96C202.394 244.761 198.419 244.135 197.867 244.19C195.217 244.453 192.67 245.268 190.075 245.844C187.262 246.469 184.405 246.934 181.558 247.373C176.191 248.2 170.778 248.722 165.363 249.096C161.361 249.373 157.348 249.514 153.338 249.594C151.301 249.635 148.99 249.381 146.994 249.883C145.552 250.247 144.728 251.571 146.332 252.401C147.135 252.816 147.99 252.835 148.862 252.892C149.661 252.944 150.882 253.406 148.748 252.791C148.357 252.061 147.966 251.331 147.575 250.6C147.57 250.605 147.566 250.61 147.561 250.615C148.791 250.37 150.022 250.124 151.252 249.879C145.274 249.408 139.422 248.115 133.471 247.4C125.652 246.46 117.846 245.316 109.991 244.72C102.728 244.169 95.5346 246.765 88.2898 246.726C84.5439 246.706 80.9295 246.221 77.2209 245.914C74.0852 245.654 71.0792 244.767 67.9901 244.261C67.2905 244.145 63.9553 244.625 65.3816 245.921Z" fill="#3D94C0"/>
<path d="M279.157 62.7817C275.283 68.1768 270.973 75.6225 264.043 76.0245C257.217 76.4173 249.024 71.597 243.309 68.2972C230.006 60.6101 226.303 48.4854 229.25 34.5211C232.802 17.744 254.122 15.2962 267.004 18.7305C282.861 22.9624 287.903 50.6103 279.157 62.7817Z" fill="#733014"/>
<path d="M274.559 10.5802C272.823 7.18819 270.33 6.67747 267.156 5.66282C263.47 4.48262 262.822 2.19069 259.681 0.669686C251.365 -3.35346 246.928 11.8337 248.607 17.3919C250.669 24.209 259.478 29.9139 267.586 28.606C275.415 27.3403 277.704 16.7298 274.559 10.5802Z" fill="#733014"/>
<path d="M139.421 178.363L139.412 172.176C174.38 168.441 190.384 162.847 190.384 162.847C197.305 159.294 198.591 154.949 201.581 148.438C208.313 133.773 212.864 119.958 218.994 105.025C220.83 100.746 224.453 95.4955 228.304 94.4405C238.404 91.6757 243.04 91.4583 245.797 94.0007C245.291 111.203 237.931 130.901 218.767 157.872C212.258 167.033 205.091 176.366 194.674 177.686C194.674 177.686 162.832 180.151 139.421 178.363Z" fill="#F7B6A0"/>
<path d="M126.256 164.713C124.511 167.791 134.52 168.983 136.115 170.005C133.844 169.576 125.376 167.292 124.303 169.375C123.782 170.667 131.597 171.646 133.011 172.126C131.626 172.135 126.152 171.277 125.755 172.881C125.75 174.068 131.124 174.571 132.723 175.005C132.316 175.125 127.325 174.636 127.642 175.655C127.879 176.66 131.28 177.526 133.002 177.827C140.779 179.186 149.332 180.916 148.821 175.521C148.438 171.495 148.116 169.281 139.024 161.986C137.458 160.728 137.037 164.368 139.634 167.533C138.754 168.046 126.464 164.344 126.256 164.713Z" fill="#F6AD96"/>
<path d="M141.682 169.541C141.694 169.452 141.705 169.363 141.718 169.274C141.788 168.746 140.137 168.681 140.058 169.274C140.046 169.365 140.057 169.45 140.073 169.541C140.23 169.408 140.386 169.274 140.542 169.14C140.258 169.236 139.84 169.346 139.778 169.691C139.723 169.996 140.074 170.393 139.989 170.653C139.757 171.362 140.205 171.981 140.704 172.454C141.753 173.452 143.784 174.053 145.201 173.907C145.754 173.85 146.623 173.268 145.766 172.858C144.932 172.46 143.996 172.48 143.161 172.012C142.757 171.786 142.502 171.398 142.333 170.982C142.27 170.828 142.332 170.514 142.277 170.322C142.211 170.212 142.146 170.102 142.08 169.992C142.034 169.928 141.988 169.864 141.942 169.8C141.829 169.601 141.794 169.593 141.838 169.775C141.927 169.701 142.03 169.533 141.934 169.417C141.831 169.293 141.73 169.17 141.604 169.068C141.207 168.745 139.611 169.023 140.171 169.478C140.264 169.554 140.357 169.629 140.449 169.704C140.701 169.909 141.62 170 141.682 169.541Z" fill="#F2937C"/>
<path d="M266.616 88.3289L300.761 100.893L281.962 185.071H236.965L228.303 94.441L250.636 88.3289H266.616Z" fill="#F7B6A0"/>
<path d="M248.611 89.3245H268.811V65.2012H248.611C248.611 65.2012 250.769 84.2066 248.611 89.3245Z" fill="#F7B6A0"/>
<path d="M249.331 86.0558C250.149 78.7567 248.612 65.2012 248.612 65.2012H268.811V73.0256C264.965 80.6772 258.04 87.052 249.331 86.0558Z" fill="#F2937C"/>
<path d="M228.091 113.973L235.707 182.583C244.804 187.207 249.823 184.619 263.801 186.121C280.661 187.931 283.419 179.21 283.419 179.21L296.295 135.041C291.503 134.554 286.948 131.981 283.712 127.342C280.264 122.396 280.056 116.208 280.202 110.406C280.344 104.943 280.737 99.408 282.501 94.176L277.203 92.2219C277.203 92.2219 270.438 114.29 254.591 115.172C254.591 115.172 243.034 118.122 235.536 92.4613L230.446 93.8546C230.446 93.8546 232.556 102.766 228.091 113.973Z" fill="#302D4D"/>
<path d="M235.13 56.4854C236.643 63.8603 240.546 76.5381 246.625 80.1806C253.995 84.5941 268.948 71.7843 272.818 64.9415C277.657 56.3815 275.538 43.013 271.905 34.1763C267.756 24.1051 256.157 19.4736 246.071 24.3367C235.995 29.1973 233.143 46.8138 235.13 56.4854Z" fill="#F7B6A0"/>
<path d="M271.507 33.7739C270.675 31.8796 269.572 30.1906 268.272 28.7264L269.644 53.3867L271.314 62.602L272.657 65.3668C272.842 65.0736 273.012 64.7853 273.159 64.508C277.794 55.8374 275.353 42.5208 271.507 33.7739Z" fill="#F2937C"/>
<path d="M277.804 45.7681C281.011 48.4766 279.933 57.2632 274.228 60.6057C272.614 59.0896 272.293 54.6878 271.923 52.5284C271.564 50.4093 271.323 48.3722 272.472 46.4541C272.827 45.8652 275.429 43.784 277.804 45.7681Z" fill="#F7B6A0"/>
<path d="M273.04 52.0648C272.97 52.5304 272.667 53.2629 272.919 53.712C273.148 54.1188 273.714 54.3659 274.126 54.5121C275.026 54.8325 276.286 54.5927 276.819 53.7533C277.204 53.1469 277.263 52.2774 277.314 51.5808C277.389 50.5583 277.303 49.7583 276.122 49.5398C276.335 49.6199 276.548 49.7 276.761 49.7806C276.204 49.1941 275.283 49.2947 274.808 49.9059C274.971 49.8015 275.135 49.6971 275.299 49.5927C274.012 49.8826 274.486 51.4934 274.42 52.4444C274.391 52.8619 274.328 53.2571 274.093 53.61C274.381 53.1765 275.716 53.7028 275.188 53.3625C274.892 53.1712 274.867 52.3842 274.781 52.0648C274.627 51.4929 273.135 51.4346 273.04 52.0648Z" fill="#F2937C"/>
<path d="M275.37 50.0321C275.526 49.8388 275.731 49.7316 275.985 49.7112C275.675 49.7068 275.687 49.8335 276.023 50.0913C276.353 50.6156 276.382 51.303 276.378 51.9031C276.372 52.8352 275.542 53.8838 275.845 54.798C275.963 55.1543 276.718 55.0393 276.952 54.9412C278.923 54.1159 279.577 51.137 278.207 49.5155C277.268 48.4057 274.214 48.0057 273.958 49.9389C273.886 50.4797 275.162 50.2787 275.37 50.0321Z" fill="#F2937C"/>
<path d="M260.362 21.1602C259.766 21.8505 259.378 22.752 259.166 23.5633C258.144 25.5333 255.523 33.3883 254.993 34.6161C253.541 37.9368 256.337 39.9049 258.797 41.5041C259.572 42.008 260.353 42.5022 261.129 43.0129C263.451 44.5461 265.689 46.2132 267.203 48.6187C268.206 50.2033 269.644 54.8605 272.16 54.56C271.82 52.0433 271.739 46.7972 275.292 45.4185C275.718 45.1583 277.303 44.9879 279.152 47.5119C279.152 47.5119 281.768 21.8908 260.362 21.1602Z" fill="#733014"/>
<path d="M254.473 35.9124L260.362 21.1602C256.427 17.5886 245.537 20.7063 245.532 20.7087C241.767 21.785 234.353 25.8883 231.714 37.866C231.714 37.866 228.492 47.0483 238.658 68.7661C234.732 58.2191 233.397 51.1044 236.274 43.1217C239.221 43.5048 245.796 41.4541 247.84 39.9593C250.077 38.3223 253.143 36.693 254.992 34.6162" fill="#733014"/>
<path d="M235.707 182.583C235.707 182.583 259.123 183.567 289.522 182.777C301.461 201.037 308.685 216.74 306.438 235.31C306.438 235.31 301.693 250.341 278.499 251.753L231.757 244.478L190.455 246.003C190.455 246.003 154.649 218.505 180.449 210.787L225.891 200.701L235.707 182.583Z" fill="#69B4E4"/>
<path d="M251.582 58.6353C251.781 59.6126 253.806 60.0335 256.114 59.5791C258.418 59.1203 260.131 57.9585 259.937 56.9818C259.742 56.005 257.713 55.5816 255.409 56.0404C253.101 56.4997 251.393 57.6585 251.582 58.6353Z" fill="#F39D94"/>
<path d="M236.289 61.6674C236.483 62.6442 238.147 63.136 240.002 62.77C241.856 62.3986 243.209 61.3106 243.015 60.3338C242.821 59.3546 241.156 58.8653 239.297 59.2313C237.443 59.6003 236.095 60.6907 236.289 61.6674Z" fill="#F39D94"/>
<path d="M239.075 54.0917C239.898 53.9829 240.749 55.0257 240.971 56.4098C241.199 57.8007 240.707 59.0115 239.879 59.1159C239.051 59.2246 238.2 58.1886 237.977 56.7977C237.76 55.4068 238.247 54.1955 239.075 54.0917Z" fill="#7F482E"/>
<path d="M253.328 51.2579C254.151 51.154 255.003 52.1924 255.225 53.5853C255.442 54.9737 254.956 56.1845 254.128 56.2933C253.304 56.3952 252.453 55.3568 252.231 53.9659C252.008 52.5779 252.5 51.3671 253.328 51.2579Z" fill="#7F482E"/>
<path d="M244.746 53.3562C245.08 53.9519 244.857 54.7349 244.827 55.3782C244.78 56.3797 244.282 57.2584 243.743 58.0687C243.087 59.0528 242.219 60.0626 242.773 61.2879C243.624 63.1706 247.147 63.4857 248.895 63.4988C249.221 63.5012 250.865 63.0856 250.052 62.5113C250.003 62.4764 249.953 62.4419 249.904 62.4069C249.323 61.9972 248.173 61.9418 247.698 62.5482C247.667 62.588 247.635 62.6278 247.604 62.6676C248.035 62.5069 248.465 62.3467 248.895 62.186C247.482 62.204 244.392 62.0715 244.596 60.0349C244.721 58.7887 246.008 57.7439 246.273 56.4739C246.499 55.385 246.632 53.9164 245.643 53.1698C245.486 53.0518 244.548 53.0023 244.746 53.3562Z" fill="#F2937C"/>
<path d="M251.923 67.068C251.923 67.068 248.919 70.6159 245.291 68.1797" stroke="#EE756D" stroke-width="4.989" stroke-miterlimit="10" stroke-linecap="round" stroke-linejoin="round"/>
<path d="M258.018 49.163C256.279 47.9795 254.396 47.576 252.313 47.9455C250.773 48.2183 248.012 49.3509 247.751 51.0904C247.604 52.072 249.963 51.8735 250.4 51.6278C251.32 51.1108 251.889 50.2554 252.793 49.7068C253.976 48.9892 255.362 49.4495 256.569 49.8733C256.903 49.9913 258.787 49.6864 258.018 49.163Z" fill="#733014"/>
<path d="M235.997 53.3876C236.828 52.8934 237.78 52.3633 238.77 52.3337C239.743 52.304 240.766 52.9881 241.728 53.174C242.034 53.2333 244.254 53.0206 243.637 52.2385C242.61 50.9374 240.325 50.7369 238.77 50.7554C236.933 50.7767 235.361 51.4423 234.227 52.8822C233.744 53.4939 235.696 53.5668 235.997 53.3876Z" fill="#733014"/>
<path d="M233.847 149.658C237.736 152.272 247.235 152.709 251.18 149.344C256.323 144.954 252.297 136.252 250.14 131.455C247.935 126.566 244.794 122.141 241.071 118.285C239.245 116.39 237.258 114.448 235.097 112.935C232.324 110.998 230.579 108.469 229.249 111.381C224.954 120.804 221.108 130.901 221.628 136.698C222.097 141.919 226.652 144.819 233.847 149.658Z" fill="#302D4D"/>
<path d="M304.839 188.212C271.625 192.824 268.206 193.83 233.932 200.963L231.865 193.771C247.216 187.682 286.645 173.301 286.645 173.301C296.295 167.807 293.769 161.728 293.769 161.728C290.467 142.813 283.419 116.497 283.419 116.497C285.628 100.272 296.144 97.8874 304.011 102.601C308.964 109.671 314.584 117.616 313.444 175.712C313.444 175.712 314.191 183.983 304.839 188.212Z" fill="#F7B6A0"/>
<path d="M216.169 207.137C213.904 206.801 208.099 206.981 207.574 204.05C207.006 200.867 212.593 198.324 214.906 197.276C218.354 195.713 228.36 193.222 231.993 192.872C236.387 192.449 238.871 194.915 233.701 200.94C229.675 205.621 222.13 208.026 216.169 207.137Z" fill="#F7B6A0"/>
<path d="M245.366 219.983H159.71V224.079H245.366V219.983Z" fill="#001521"/>
<path d="M134.969 224.08H214.684L207.692 167.807H127.978L134.969 224.08Z" fill="white"/>
<path d="M217.527 224.079H214.684L207.692 167.807H210.531L217.527 224.079Z" fill="#DADADA"/>
<path d="M164.957 194.589C164.957 198.111 167.814 200.963 171.329 200.963C174.853 200.963 177.705 198.111 177.705 194.589C177.705 191.067 174.853 188.212 171.329 188.212C167.814 188.212 164.957 191.067 164.957 194.589Z" fill="#DADADA"/>
<path d="M205.284 236.17L188.094 237.691L188.368 250.774L205.545 250.313L205.284 236.17Z" fill="#F6AD96"/>
<path d="M193.316 250.812C185.899 252.855 164.734 251.14 157.033 248.219C147.709 244.681 148.348 226.014 160.094 228.687C170.733 231.111 181.915 235.459 192.767 236.338C192.767 236.338 199.23 241.35 193.316 250.812Z" fill="#EE78A5"/>
<path d="M193.316 250.812C190.663 245.345 192.162 233.945 192.162 233.945L201.429 229.075C212.872 220.177 226.449 214.396 237.651 205.202C246.327 198.085 254.813 186.204 267.42 187.467C275.945 188.319 281.82 194.726 286.711 201.158C294.862 211.874 306.437 220.617 306.437 235.31C306.437 247.721 289.975 257.035 281.096 255.632C274.53 254.596 264.672 246.325 261.024 241.341L251.232 229.259C251.232 229.259 247.339 241.944 209.527 249.904C209.527 249.904 198.293 252.306 193.316 250.812Z" fill="#69B4E4"/>
<path d="M260.086 187.938C257.067 188.621 254.662 190.031 252.095 191.708C248.994 193.732 245.954 195.804 242.813 197.766C237.521 201.071 232.726 205.222 227.846 209.092C222.247 213.533 216.017 217.233 209.855 220.833C206.972 222.516 204.02 224.104 201.205 225.898C199.788 226.801 198.38 227.719 196.986 228.656C196.218 229.173 195.642 229.608 195.073 230.332C194.567 230.977 194.899 231.228 194.605 231.866C194.225 232.693 196.068 232.664 196.44 232.557C198.471 231.973 200.183 231.661 202.04 230.567C203.563 229.671 205.107 228.81 206.654 227.958C209.618 226.325 212.536 224.591 215.466 222.898C221.403 219.467 227.34 215.89 232.59 211.454C237.073 207.664 241.185 203.447 245.797 199.807C248.301 197.829 250.977 196.105 253.451 194.073C255.7 192.225 258.002 189.492 260.682 188.316C261.194 188.091 260.292 187.891 260.086 187.938Z" fill="#3D94C0"/>
<path d="M303.613 215.786C302.841 213.253 300.741 211.132 299.011 209.16C297.013 206.885 294.929 204.688 292.81 202.526C290.61 200.281 288.419 198.391 285.783 196.665C283.726 195.318 281.204 194.317 279.272 192.825C279.21 192.777 278.843 192.771 278.926 192.896C279.717 194.086 279.064 193.633 279.889 194.54C280.835 195.579 282.075 196.011 282.861 197.269C284.212 199.433 285.795 201.386 287.593 203.202C289.716 205.345 291.77 207.555 293.777 209.807C295.83 212.112 297.744 214.639 300.224 216.486C300.905 216.994 304.072 217.289 303.613 215.786Z" fill="#3D94C0"/>
<path d="M59.1627 243.704C51.6596 245.35 44.2377 243.311 39.2707 244.596C35.0558 245.684 30.3346 248.99 25.973 249.489C20.3435 250.135 18.5506 247.458 15.9581 243.207C13.7443 239.574 10.6979 237.457 7.03162 235.347C4.378 233.819 -4.46347 227.27 2.80752 225.995C7.07437 225.247 9.21242 227.159 13.2856 228.426C19.0001 230.203 18.3374 230.302 27.8411 231.497C32.4959 232.083 47.7379 229.77 59.3942 226.986C59.3942 226.986 60.2696 239.607 59.1627 243.704Z" fill="#EE78A5"/>
<path d="M280.365 132.536C279.071 134.775 278.131 137.155 276.655 139.3C275.072 141.601 272.847 143.551 270.408 144.894C267.739 146.365 264.727 146.864 261.712 146.784C258.272 146.693 255.136 144.87 251.758 144.865C251.48 144.865 250.758 144.971 250.918 145.405C251.396 146.698 253.417 147.014 254.571 147.374C256.518 147.981 258.545 148.313 260.575 148.464C263.99 148.72 267.54 148.31 270.726 147.012C276.176 144.794 282.125 139.004 281.258 132.595C281.215 132.282 280.497 132.307 280.365 132.536Z" fill="#211D35"/>
<path d="M242.175 143.229C239.792 144.691 237.666 146.642 234.709 146.744C232.387 146.824 230.278 145.526 227.99 145.759C227.809 145.777 227.59 145.933 227.823 146.069C228.283 146.335 228.582 146.967 228.972 147.343C229.524 147.874 230.38 148.208 231.089 148.446C232.882 149.047 234.7 149.219 236.569 148.932C238.895 148.576 244.467 146.683 244.113 143.622C244.032 142.919 242.601 142.967 242.175 143.229Z" fill="#211D35"/>
<path d="M261.788 241.933C260.533 240.497 259.027 239.718 257.46 238.67C256.211 237.834 255.232 236.628 254.124 235.626C252.202 233.884 249.813 233.634 247.379 234.226C243.707 235.121 240.571 237.097 237.416 239.092C233.91 241.31 230.107 242.669 226.243 244.113C221.266 245.973 216.367 247.399 211.123 248.397C207.996 248.993 204.843 249.456 201.673 249.761C199.237 249.995 196.209 249.607 193.919 250.564C193.757 250.631 193.681 250.795 193.824 250.923C195.191 252.148 197.941 251.802 199.603 251.78C202.467 251.743 205.321 251.406 208.155 251.016C213.548 250.272 218.935 249.16 224.21 247.815C230.104 246.312 236.275 243.869 241.402 240.6C243.743 239.107 248.698 234.357 251.403 236.405C252.632 237.336 253.65 238.498 254.91 239.4C256.501 240.538 258.316 241.305 259.893 242.476C260.356 242.82 262.502 242.75 261.788 241.933Z" fill="#3D94C0"/>
</svg>
