<svg width="367" height="341" viewBox="0 0 367 341" fill="none" xmlns="http://www.w3.org/2000/svg">
<path d="M315.452 309.738C315.452 326.746 249.675 340.533 168.538 340.533C87.3982 340.533 21.6207 326.746 21.6207 309.738C21.6207 292.729 87.3978 278.943 168.538 278.943C249.675 278.943 315.452 292.729 315.452 309.738Z" fill="#2B4274"/>
<path d="M0.675991 178.527C5.31305 232.954 30.8906 292.439 87.7334 307.321C134.328 319.521 202.341 323.247 243.077 292.391C253.834 284.243 263.527 273.241 271.07 262.069C286.622 239.027 285.992 201.163 272.279 175.074C261.332 154.248 240.217 140.914 228.306 120.584C213.918 96.028 214.599 64.6901 198.465 41.295C174.511 6.56141 117.68 12.0388 85.7711 28.3189C53.0295 45.0254 21.6318 75.7545 8.60637 110.547C0.724 131.603 -1.22642 156.203 0.675991 178.527Z" fill="#3CA8C9"/>
<path d="M68.6524 56.3413C67.12 59.7506 66.905 63.182 66.9675 66.8746C67.0308 70.6034 67.2334 74.0076 68.4094 77.5881C69.7421 81.6465 72.1653 84.7045 75.0776 87.7539C76.3245 89.0594 77.7311 90.1882 78.811 91.625C79.5659 92.6293 81.1314 92.5949 82.2165 92.3039C82.6324 92.1922 83.3873 91.874 83.3648 91.323C83.3176 90.181 82.4969 89.4979 81.6536 88.8114C80.4024 87.793 79.2945 86.5852 78.1729 85.428C75.5708 82.7435 73.8574 79.8644 72.6224 76.3484C71.5196 73.2076 71.2753 70.1561 71.0548 66.8742C70.8343 63.5894 70.1057 59.8768 71.006 56.6586C71.2664 55.7295 68.9685 55.6382 68.6524 56.3413Z" fill="#318DAA"/>
<path d="M93.7617 146.766C96.0269 156.768 93.1755 166.398 90.3864 175.968C87.4823 185.931 85.8594 195.785 88.8116 205.957C90.5483 211.941 93.3785 216.724 96.8065 221.844C98.3657 224.173 102.863 232.667 106.9 229.38C107.071 229.251 107.165 229.081 107.182 228.87C107.164 228.92 107.145 228.97 107.126 229.02C107.688 227.58 103.713 227.283 103.241 228.495C103.232 228.517 103.223 228.54 103.214 228.563C103.523 228.366 103.832 228.169 104.14 227.973C103.261 228.294 107.419 229.428 106.763 228.281C106.607 228.011 106.374 227.748 106.183 227.502C105.519 226.652 104.836 225.822 104.199 224.95C102.623 222.794 101.147 220.563 99.6967 218.321C96.2096 212.929 93.7205 207.55 92.4796 201.14C88.8893 182.593 103.054 164.864 95.5129 146.65C95.3166 146.178 93.6407 146.232 93.7617 146.766Z" fill="#318DAA"/>
<path d="M117.453 238.707C121.441 246.045 127.486 252.967 134.71 257.213C141.235 261.05 148.748 263.124 156.17 264.325C164.167 265.619 172.431 265.681 180.449 264.545C187.065 263.608 195.425 261.901 200.415 257.148C202.014 255.625 197.662 255.432 196.855 255.803C190.809 258.581 184.966 260.906 178.328 261.859C171.301 262.869 164.124 262.626 157.127 261.508C150.498 260.449 143.929 258.408 138.071 255.102C134.873 253.296 132.128 250.899 129.644 248.211C126.45 244.756 123.838 240.853 119.861 238.211C119.451 237.938 116.914 237.716 117.453 238.707Z" fill="#318DAA"/>
<path d="M307.528 264.499L323.475 287.629L333.179 284.221L323.475 254.081L307.528 264.499Z" fill="#F5A79C"/>
<path d="M317.064 299.454L366.294 299.357C365.644 293.61 361.169 292.341 361.169 292.341L346.97 288.058L334.142 280.42L329.308 282.754C329.308 282.754 328.332 282.581 329.311 284.952C329.311 284.952 323.198 286.235 320.318 284.969L317.064 300.001" fill="#0097B4"/>
<path d="M366.302 299.349L317.072 299.447L317.076 301.73L366.306 301.632L366.302 299.349Z" fill="#4B5B8C"/>
<path d="M351.068 289.271C349.308 289.145 348.287 291.627 348.052 293.037C348.206 292.962 348.36 292.887 348.514 292.811C348.411 292.815 348.31 292.821 348.208 292.836C348.39 292.904 348.572 292.972 348.755 293.04C348.719 292.907 348.655 292.882 348.538 292.785C348.432 292.699 348.207 292.697 348.103 292.785C347.992 292.879 347.922 292.909 347.891 293.04C347.859 293.171 348.133 293.235 348.207 293.244C348.31 293.256 348.411 293.262 348.513 293.263C348.673 293.266 348.937 293.227 348.975 293.037C349.117 292.324 349.328 291.665 349.672 291.023C349.959 290.486 350.516 289.691 351.129 289.501C351.329 289.439 351.241 289.284 351.068 289.271Z" fill="white"/>
<path d="M345.927 287.641C345.346 288.895 343.72 290.054 343.71 291.516C343.708 291.79 344.376 291.751 344.48 291.567C344.836 290.939 345.082 290.27 345.472 289.652C345.859 289.038 346.266 288.415 346.478 287.715C346.544 287.499 346.003 287.477 345.927 287.641Z" fill="white"/>
<path d="M342.528 285.895C341.278 287.064 340.383 288.311 339.952 289.987C340.282 289.965 340.612 289.943 340.943 289.921C340.83 289.742 340.794 289.701 340.643 289.549C340.567 289.472 340.343 289.472 340.267 289.549C340.116 289.702 340.082 289.739 339.97 289.921C339.802 290.194 340.842 290.427 340.961 289.987C341.345 288.563 341.996 287.139 342.971 286.022C343.131 285.839 342.637 285.792 342.528 285.895Z" fill="white"/>
<path d="M338.218 283.049C337.72 283.695 337.323 284.415 336.857 285.085C336.638 285.401 336.448 285.726 336.298 286.081C336.224 286.257 336.195 286.959 336.142 287.014C336.291 286.984 336.44 286.955 336.588 286.925C336.605 286.917 336.623 286.908 336.64 286.9C336.562 286.793 336.284 286.778 336.211 286.9C336.188 286.938 336.165 286.976 336.142 287.014C336.096 287.063 336.076 287.097 336.102 287.163C336.106 287.172 336.109 287.18 336.112 287.188C336.222 287.471 337.121 287.464 337.14 287.12C337.18 286.408 337.467 285.814 337.837 285.218C338.25 284.552 338.5 283.837 338.834 283.133C338.946 282.898 338.329 282.905 338.218 283.049Z" fill="white"/>
<path d="M194.155 165.17C184.315 165.163 179.678 161.434 178.406 150.984C175.407 126.356 183.037 88.4893 187.673 81.8666C188.077 80.2221 199.179 71.9871 203.104 86.1128C203.104 86.1128 204.211 109.805 198.703 139.886C198.703 139.886 195.87 146.045 203.312 146.045C203.312 146.045 252.726 143.725 265.319 151.603L272.029 154.212V155.495C272.029 155.495 252.24 154.212 238.407 158.848C238.407 158.847 204.886 168.051 194.155 165.17Z" fill="#F7B6A0"/>
<path d="M191.499 74.7362C191.499 74.7362 181.175 75.5332 179.155 97.1199L178.523 135.845C178.523 135.845 189.453 141.462 215.107 134.955L207.993 86.9077C207.993 86.9077 204.533 75.7698 191.499 74.7362Z" fill="#9C599F"/>
<path d="M155.105 55.2988C164.856 59.7523 182.149 49.5567 187.662 41.2487C194.528 30.9006 193.682 14.5169 181.463 7.96679C170.503 2.09176 147.386 4.32256 142.215 17.8467C140.174 23.186 142.378 32.3586 143.608 37.7544C145.17 44.6028 148.306 52.1928 155.105 55.2988Z" fill="#8B3A23"/>
<path d="M286.278 275.393L302.225 298.523L311.929 295.116L302.225 264.976L286.278 275.393Z" fill="#F5A79C"/>
<path d="M248.315 153.787C248.315 153.787 275.182 142.628 284.46 162.085L327.62 252.603L308.552 270.854L248.315 153.787Z" fill="#547EAE"/>
<path d="M170.239 236.37C170.239 236.37 189.58 237.846 199.237 232.517L246.222 188.446L233.811 176.666L170.239 236.37Z" fill="#547EAE"/>
<path d="M156.262 66.8895L123.169 79.8164L142.508 166.411H188.8L199.959 78.6952L174.732 66.8895H156.262Z" fill="#F5A79C"/>
<path d="M309.785 273.513C309.781 273.507 260.138 166.435 260.138 166.435C260.138 166.435 253.368 148.466 235.922 153.333C197.693 164.001 139.455 176.39 139.455 176.39C139.455 176.39 124.4 214.824 146.383 232.043C151.871 236.342 164.005 237.679 170.239 236.37C179.219 234.486 187.409 227.6 194.451 222.12C204.077 214.63 213.191 206.513 222.596 198.753C227.338 194.839 232.466 188.022 237.126 195.52C238.086 197.064 238.807 199.184 239.465 200.902C240.891 204.634 241.429 208.413 242.428 212.085C244.414 219.386 247.92 227.552 250.896 234.81C253.638 241.502 258.823 246.395 263.163 251.948C267.532 257.537 272.426 263.308 276.007 269.395C277.837 272.505 284.883 289.002 286.277 292.318L309.785 273.513Z" fill="#547EAE"/>
<path d="M133.015 103.513C133.015 103.513 130.907 123.144 132.541 133.78C133.451 139.695 132.378 144.558 130.938 150.239C130.226 153.041 128.84 155.811 128.81 158.749C128.781 161.548 129.552 164.33 129.588 167.172C129.657 172.749 130.881 178.185 129.752 183.684C129.144 186.642 128.725 189.721 128.887 192.746C129.075 196.261 132.1 214.117 132.545 217.567C145.238 218.132 144.662 208.243 148.435 198.668C150.838 192.57 151.243 178.705 157.449 176.05C163.245 173.57 169.656 174.082 175.786 173.372C181.965 172.657 194.816 166.116 199.958 162.597C204.052 159.797 198.713 157.508 199.958 152.497C201.321 147.014 201.469 144.135 199.647 139.052C197.422 132.843 195.393 126.676 193.952 120.233C192.707 114.66 191.444 109.241 187.096 105.2C174.423 93.425 152.685 95.4464 137.973 101.412L133.015 103.513Z" fill="#9C599F"/>
<path d="M175.1 173.108C173.574 174.827 169.983 173.523 168.148 173.233C165.803 172.862 163.652 173.308 161.338 173.661C159.268 173.976 157.533 174.036 155.562 174.892C153.538 175.771 151.515 176.943 149.803 178.336C146.441 181.076 144.372 185.054 140.988 187.799C139.468 189.032 137.653 189.631 136.049 190.694C134.669 191.608 133.156 192.954 131.456 193.158C131.196 193.189 130.479 193.476 130.908 193.817C133.465 195.848 137.436 192.006 139.645 191.02C144.147 189.011 146.898 185.237 149.946 181.562C151.797 179.331 153.939 177.894 156.453 176.506C159.007 175.097 161.793 175.011 164.612 174.495C167.078 174.043 169.767 175.051 172.317 174.968C173.785 174.92 175.617 174.822 176.374 173.371C176.619 172.903 175.329 172.85 175.1 173.108Z" fill="#7E559E"/>
<path d="M145.572 71.7326C145.402 73.0887 145.874 74.6827 146.054 76.0426C146.301 77.9118 146.263 79.8151 146.237 81.6954C146.178 85.9879 145.044 90.0238 143.803 94.1048C142.857 97.2184 142.491 100.465 141.345 103.527C140.354 106.178 138.767 108.609 136.89 110.714C133.915 114.049 130.077 116.531 126.044 118.391C124.715 119.003 123.343 119.521 121.963 120.007C121.48 120.178 120.936 120.282 120.475 120.508C120.34 120.574 119.85 121.132 120.043 120.922C119.819 121.166 119.896 121.436 120.213 121.566C122.401 122.462 125.503 120.852 127.486 120.004C131.914 118.11 136.057 115.391 139.366 111.879C143.755 107.22 145.221 101.652 146.456 95.5361C147.345 91.1403 148.762 86.9922 148.765 82.4512C148.768 78.6735 148.262 75.2044 147.132 71.629C146.988 71.1735 145.635 71.23 145.572 71.7326Z" fill="#DBC7B8"/>
<path d="M156.311 73.2366C156.483 73.2637 156.655 73.2909 156.828 73.3181C156.591 73.1656 156.354 73.0135 156.118 72.861C156.266 74.3454 159.133 74.7983 160.217 75.0948C161.418 75.4232 162.631 75.6543 163.87 75.7745C164.363 75.8225 164.877 75.8718 165.371 75.8051C165.7 75.7609 166.616 75.2868 166.921 75.4355C170.677 77.2648 175.174 73.5093 178.438 72.2441C178.584 72.1876 178.927 71.9442 178.87 71.7327C178.809 71.5041 178.598 70.9522 178.706 70.705C178.943 70.1603 177.663 70.1765 177.411 70.3354C176.055 71.1914 174.741 71.8614 173.305 72.6592C172.221 73.2608 169.832 74.7927 168.688 74.2349C166.889 73.3589 165.678 74.4898 163.926 74.3726C162.65 74.2872 161.397 73.9333 160.16 73.6321C159.727 73.5267 158.312 73.1053 158.018 72.7353C157.752 72.3996 157.227 72.341 156.828 72.4043C156.655 72.4315 156.483 72.4587 156.311 72.4863C155.606 72.5976 155.606 73.1253 156.311 73.2366Z" fill="#DBC7B8"/>
<path d="M310.211 273.513C309.653 270.366 307.804 267.38 306.375 264.573C305.595 263.039 304.789 261.525 303.972 260.01C302.737 257.72 301.927 255.192 300.961 252.779C295.935 240.216 290.476 227.896 284.606 215.706C278.767 203.58 272.753 191.52 267.542 179.106C265.076 173.232 262.444 167.812 258.676 162.64C255.944 158.89 253.184 154.438 248.637 152.77C247.183 152.237 245.633 152.36 244.129 152.133C242.474 151.883 241.213 151.834 239.576 152.067C238.404 152.235 237.246 152.596 236.105 152.903C235.147 153.162 234.123 153.777 233.133 153.872C232.558 153.927 232.968 154.312 233.359 154.275C234.751 154.142 236.13 153.876 237.49 153.555C239.886 152.99 241.818 152.847 244.282 153.236C245.698 153.46 246.967 153.398 248.317 154.006C249.418 154.503 250.336 155.342 251.186 156.18C253.353 158.318 255.094 161.084 256.851 163.557C260.556 168.771 263.05 174.29 265.485 180.168C268.052 186.366 270.798 192.489 273.613 198.577C279.26 210.785 285.24 222.834 290.8 235.084C295.373 245.161 298.9 255.785 304.6 265.286C306.189 267.937 308.242 270.682 309.373 273.567C309.462 273.793 310.258 273.776 310.211 273.513Z" fill="#476A91"/>
<path d="M223.071 187.552C225.205 189.901 227.142 192.25 229.034 194.789C230.421 196.652 232.909 198.259 235.013 199.184C235.769 199.517 238.636 199.028 237.123 198.151C234.846 196.831 232.334 195.506 230.697 193.416C228.868 191.079 226.434 189.219 224.242 187.217C223.95 186.951 222.641 187.08 223.071 187.552Z" fill="#476A91"/>
<path d="M232.588 182.307C232.596 183.125 232.657 184.492 232.927 185.248C233.416 186.623 234.363 188.239 234.479 189.696C234.509 190.066 234.838 191.022 234.902 191.28C235.077 191.994 234.937 192.866 234.926 193.591C234.903 195.135 235.329 196.063 235.644 197.539C235.79 198.22 237.483 198.228 237.62 197.539C237.873 196.27 237.224 195.657 237.222 194.437C237.22 192.924 237.248 191.527 236.755 190.091C236.357 188.931 236.02 187.825 235.537 186.666C234.949 185.254 234.18 183.831 233.906 182.307C233.825 181.862 232.583 181.85 232.588 182.307Z" fill="#476A91"/>
<path d="M170.973 235.722C178.042 236.664 185.053 232.129 190.747 228.555C193.741 226.676 196.496 224.434 199.12 222.065C201.793 219.652 204.702 217.386 207.218 214.814C209.987 211.983 212.684 209.163 215.555 206.421C217.067 204.978 218.625 203.595 220.202 202.223C222.225 200.463 224.224 198.674 226.201 196.862C227.528 195.647 229.176 194.363 229.724 192.597C229.982 191.765 228.223 191.93 227.848 192.209C224.351 194.802 221.141 197.814 217.867 200.701C213.862 204.232 209.806 207.862 206.231 211.825C201.724 216.821 196.541 221.405 191.281 225.622C185.343 230.382 178.436 233.641 170.974 234.954C170.271 235.077 170.231 235.623 170.973 235.722Z" fill="#476A91"/>
<path d="M151.222 201.776C156.335 200.086 161.804 197.424 165.344 193.256C167.154 191.124 168.996 189.058 170.268 186.544C170.847 185.4 171.254 184.188 171.853 183.047C172.532 181.756 172.395 180.4 172.911 179.079C173.264 178.177 171.127 178.235 170.716 178.625C169.998 179.309 169.853 179.586 169.823 180.614C169.783 181.985 169.002 183.135 168.446 184.344C167.258 186.927 166.089 189.088 164.29 191.329C160.617 195.903 155.724 198.894 150.4 201.254C149.726 201.552 150.897 201.883 151.222 201.776Z" fill="#476A91"/>
<path d="M196.838 125.176C198.169 116.739 206.136 109.537 204.245 100.591C203.403 96.6079 200.918 93.1205 198.729 89.7413L199.959 78.6952L176.278 67.6126C171.794 74.9937 151.821 68.5358 151.821 68.5358L134.238 75.1173C131.171 76.2495 126.952 78.0491 123.992 79.4034C120.66 80.9286 120.184 84.9947 121.034 88.3687C121.385 89.7617 122.119 91.2474 122.834 92.7504C122.343 96.5833 122.525 100.711 122.428 104.229C122.199 112.596 122.395 120.989 123.23 129.322C124.436 141.376 125.656 157.066 134.106 166.569C141.756 175.17 152.506 173.745 160.216 167.518C160.573 167.501 160.9 167.491 161.191 167.491C175.657 167.51 180.902 170.538 190.259 165.783L191.584 153.881C193.933 154.287 196.265 153.78 197.968 151.574C203.476 144.432 195.563 133.248 196.838 125.176Z" fill="#9C599F"/>
<path d="M186.474 75.8246C188.474 79.5831 190.016 83.4521 192.882 86.6778C195.971 90.1538 199.505 92.6468 201.05 97.2426C202.656 102.02 201.57 107.428 200.158 112.1C199.474 114.363 198.646 116.592 197.866 118.823C197.265 120.545 196.043 122.775 196.421 124.627C196.49 124.964 197.235 124.946 197.391 124.692C198.573 122.765 199.263 120.521 200.177 118.45C201.148 116.251 201.975 114.023 202.676 111.723C204.063 107.179 204.722 102.42 203.535 97.7592C202.464 93.5487 199.597 90.7898 196.477 87.9948C192.52 84.45 190.472 79.8533 187.286 75.715C187.136 75.5196 186.317 75.5315 186.474 75.8246Z" fill="#7E559E"/>
<path d="M157.085 163.432C158.842 163.426 160.564 163.064 162.323 163.006C163.911 162.952 165.436 161.95 166.957 161.969C171.31 162.022 175.345 162.38 179.544 163.586C180.869 163.967 182.363 163.58 183.674 163.353C185.158 163.096 186.717 163.279 188.219 163.085C189.895 162.869 193.167 161.915 192.256 159.639C192.087 159.219 191.084 159.292 190.821 159.547C189.933 160.412 189.24 161.221 188.012 161.592C186.973 161.905 185.802 161.856 184.73 161.866C183.27 161.88 181.372 162.795 180.023 162.105C178.809 161.483 176.984 161.512 175.661 161.357C172.427 160.979 169.107 160.487 165.829 160.929C165.469 160.977 165.175 161.152 164.85 161.309C163.612 161.908 162.262 162.058 160.905 162.135C159.556 162.212 158.269 162.714 156.92 162.831C156.199 162.893 156.524 163.434 157.085 163.432Z" fill="#7E559E"/>
<path d="M172.774 97.2108C173.481 99.7045 174.056 102.194 175.284 104.492C176.571 106.899 178.022 109.384 177.173 112.207C176.475 114.529 173.961 116.101 172.025 117.299C170.992 117.937 170.039 118.662 169.077 119.402C168.298 120.001 167.133 120.444 166.597 121.291C166.404 121.596 167.086 121.714 167.241 121.706C169.832 121.563 171.513 119.361 173.617 118.079C175.762 116.771 177.868 115.277 179.07 113.012C180.306 110.684 179.224 107.929 178.074 105.82C176.504 102.94 175.297 100.099 174.119 97.0289C173.961 96.6164 172.625 96.6827 172.774 97.2108Z" fill="#7E559E"/>
<path d="M175.167 67.3645H156.24V44.7604H175.167C175.167 44.7604 173.148 62.569 175.167 67.3645Z" fill="#F5A79C"/>
<path d="M174.316 61.8196C174.183 53.4516 175.167 44.7604 175.167 44.7604H156.24V51.545C161.023 56.5988 166.148 61.2393 174.316 61.8196Z" fill="#F2937C"/>
<path d="M184.542 31.0713C184.492 38.1253 183.216 50.4909 178.293 54.9423C172.322 60.3407 156.244 51.2926 151.443 45.7073C145.433 38.7209 144.947 26.0468 146.678 17.2638C148.658 7.25261 158.474 0.883929 168.629 3.5179C178.776 6.14847 184.605 21.8219 184.542 31.0713Z" fill="#F5A79C"/>
<path d="M146.971 16.8229C147.393 14.9294 148.096 13.174 149.026 11.5953L152.253 34.5091L152.397 43.2828L151.666 46.0684C151.444 45.8322 151.237 45.5977 151.052 45.3721C145.211 38.2438 145.028 25.5621 146.971 16.8229Z" fill="#F2937C"/>
<path d="M143.369 28.9948C140.91 32.0647 143.506 39.9449 149.355 41.9769C150.56 40.2928 150.057 36.186 150.002 34.1353C149.948 32.1224 149.799 30.206 148.392 28.6524C147.958 28.1757 145.187 26.7373 143.369 28.9948Z" fill="#F5A79C"/>
<path d="M147.645 34.0711C147.655 34.4875 147.714 34.897 147.669 35.3129C147.653 35.4625 147.49 35.5653 147.384 35.6541C147.135 35.8639 147.205 35.5844 147.677 35.7709C147.361 35.646 147.191 34.9756 147.099 34.6842C146.858 33.9148 146.967 32.7435 146.266 32.2121C146.102 32.088 145.739 32.0591 145.58 32.2121C145.206 32.5732 145.265 33.1 145.363 33.5652C145.511 34.2751 145.696 35.0236 146.078 35.6473C146.444 36.2433 147.163 36.5025 147.837 36.3117C148.178 36.2153 148.449 36.0152 148.67 35.7399C149.053 35.2615 148.669 34.5954 148.536 34.0711C148.463 33.7822 147.638 33.7546 147.645 34.0711Z" fill="#F2937C"/>
<path d="M147.353 32.2087C146.788 31.1288 144.899 31.263 144.279 32.2244C143.207 33.8872 144.29 36.2981 145.97 37.0892C146.082 37.1418 146.638 37.1792 146.537 36.9277C146.244 36.1949 145.668 35.5746 145.353 34.8388C145.149 34.3626 145.162 33.7959 145.176 33.2895C145.196 32.5464 145.879 31.5243 146.681 32.3476C146.803 32.4734 147.485 32.4615 147.353 32.2087Z" fill="#F2937C"/>
<path d="M154.917 3.19971C155.592 3.72565 156.114 4.48398 156.452 5.18963C157.752 6.81377 161.59 13.558 162.304 14.587C164.24 17.3764 162.026 19.6956 160.06 21.6112C159.441 22.2136 158.81 22.8117 158.192 23.4218C156.332 25.2558 154.585 27.1952 153.627 29.6796C152.994 31.3216 152.524 35.8622 150.153 36.044C150.008 33.6718 149.129 28.832 145.614 28.2114C145.173 28.0508 143.683 28.1838 142.444 30.8407C142.444 30.8407 135.377 7.77049 154.917 3.19971Z" fill="#8B3A23"/>
<path d="M163.014 15.6847L154.917 3.19971C157.882 -0.799673 168.46 0.0827107 168.465 0.0827107C172.122 0.387741 186.485 7.1477 191.085 17.6759C191.085 17.6759 197.639 33.1505 183.53 43.0028C185.222 32.591 185.152 25.8094 181.054 18.9993C178.417 19.8868 172.002 19.1968 169.85 18.1985C167.492 17.1003 164.384 16.1614 162.305 14.5874" fill="#8B3A23"/>
<path d="M169.808 36.0449C169.808 36.9778 168.022 37.734 165.82 37.734C163.617 37.734 161.831 36.9778 161.831 36.0449C161.831 35.1115 163.617 34.3553 165.82 34.3553C168.022 34.3553 169.808 35.1115 169.808 36.0449Z" fill="#F2908E"/>
<path d="M184.42 36.0449C184.42 36.9778 182.981 37.734 181.206 37.734C179.432 37.734 177.994 36.9778 177.994 36.0449C177.994 35.1115 179.432 34.3553 181.206 34.3553C182.981 34.3553 184.42 35.1115 184.42 36.0449Z" fill="#F2908E"/>
<path d="M180.478 29.5891C179.701 29.6393 179.108 30.7515 179.158 32.0676C179.203 33.3863 179.876 34.4089 180.655 34.3549C181.434 34.3035 182.026 33.1964 181.979 31.8764C181.927 30.559 181.257 29.5343 180.478 29.5891Z" fill="#7F482E"/>
<path d="M166.865 29.5819C166.086 29.6371 165.494 30.7442 165.543 32.0646C165.592 33.3803 166.263 34.4054 167.043 34.3549C167.82 34.2988 168.414 33.1887 168.363 31.873C168.315 30.5531 167.644 29.5322 166.865 29.5819Z" fill="#7F482E"/>
<path d="M174.442 29.9434C173.797 30.768 174.252 32.0688 174.622 32.9342C175.103 34.0579 176.191 34.7325 176.812 35.7521C178.014 37.7246 174.118 38.8611 172.864 39.099C173.145 39.1772 173.427 39.2553 173.708 39.3339C173.459 38.805 172.659 38.87 172.385 39.3339C172.163 39.7086 173.057 39.7826 173.229 39.7473C174.833 39.4176 177.299 38.7009 177.954 37.0054C178.342 35.9998 177.426 35.1468 176.795 34.5116C176.198 33.9113 175.675 33.3162 175.312 32.5455C175.008 31.8985 174.614 30.7107 174.926 30.0088C175.01 29.8189 174.529 29.8321 174.442 29.9434Z" fill="#F2937C"/>
<path d="M171.033 43.8563C171.033 43.8563 174.439 46.5701 177.332 43.6689" stroke="#EE756D" stroke-width="2.9184" stroke-miterlimit="10" stroke-linecap="round" stroke-linejoin="round"/>
<path d="M163.525 28.719C164.614 28.0189 165.8 27.4173 167.132 27.5584C168.214 27.6731 169.054 28.4692 169.971 28.9697C170.189 29.0886 171.672 29.0479 171.299 28.5912C169.123 25.9309 164.918 26.3527 162.588 28.451C162.198 28.8019 163.295 28.8669 163.525 28.719Z" fill="#AF5040"/>
<path d="M184.27 27.7733C182.065 26.2881 178.39 26.3166 176.594 28.5287C176.216 28.9939 177.711 29.016 177.921 28.9072C178.563 28.5763 179.128 28.1404 179.781 27.8264C180.978 27.2504 182.272 27.5826 183.419 28.0949C183.623 28.1867 184.677 28.0469 184.27 27.7733Z" fill="#AF5040"/>
<path d="M128.795 166.064C118.954 166.057 114.318 162.328 113.045 151.878C110.047 127.25 117.677 89.3832 122.313 82.7605C122.717 81.1164 133.819 72.881 137.744 87.0067C137.744 87.0067 138.851 110.699 133.343 140.78C133.343 140.78 130.509 146.939 137.952 146.939C137.952 146.939 187.366 144.619 199.958 152.497L206.669 155.105V156.388C206.669 156.388 186.879 155.105 173.046 159.741C173.046 159.741 139.525 168.946 128.795 166.064Z" fill="#F7B6A0"/>
<path d="M127.663 78.0168C127.663 78.0168 112.366 78.4416 110.346 100.028L106.821 134.804C106.821 134.804 124.092 142.356 139.455 138.569L141.364 90.0353C141.364 90.0353 140.847 76.6764 127.663 78.0168Z" fill="#9C599F"/>
<path d="M151.386 51.683C142.516 62.7635 135.47 69.9899 136.921 84.7452C137.682 92.4878 141.293 100.233 143.888 107.522C145.615 112.376 148.106 116.419 153.021 118.25C155.554 119.193 158.668 120.094 161.262 118.831C165.175 116.925 163.048 113.26 161.602 110.39C158.164 103.56 155.228 96.4864 152.464 89.3602C150.184 83.4809 147.956 77.0256 149.578 70.6794C151.03 65.002 156.817 60.3547 156.24 54.1632C156.012 51.7255 154.237 51.3537 151.799 50.8567L151.386 51.683Z" fill="#8B3A23"/>
<path d="M296.826 309.676L346.056 309.579C345.405 303.832 340.932 302.563 340.932 302.563L326.733 298.28L313.905 290.642L309.072 292.976C309.072 292.976 308.096 292.803 309.074 295.174C309.074 295.174 302.961 296.457 300.082 295.19L296.826 310.222" fill="#00B1C3"/>
<path d="M346.065 309.571L296.834 309.67L296.839 311.953L346.07 311.854L346.065 309.571Z" fill="#4B5B8C"/>
<path d="M330.83 299.493C329.07 299.367 328.05 301.848 327.815 303.259C327.969 303.184 328.123 303.108 328.277 303.033C328.174 303.037 328.072 303.043 327.97 303.058C328.153 303.126 328.335 303.194 328.517 303.261C328.481 303.129 328.418 303.103 328.3 303.007C328.195 302.921 327.971 302.919 327.865 303.007C327.755 303.101 327.685 303.131 327.653 303.261C327.621 303.392 327.895 303.457 327.97 303.465C328.072 303.477 328.173 303.484 328.276 303.485C328.435 303.487 328.7 303.448 328.738 303.259C328.879 302.545 329.091 301.886 329.434 301.244C329.722 300.708 330.278 299.912 330.89 299.723C331.091 299.661 331.003 299.506 330.83 299.493Z" fill="white"/>
<path d="M325.689 297.863C325.11 299.119 323.483 300.275 323.473 301.738C323.471 302.012 324.139 301.973 324.243 301.789C324.599 301.161 324.845 300.492 325.235 299.874C325.622 299.26 326.029 298.637 326.24 297.937C326.305 297.721 325.764 297.699 325.689 297.863Z" fill="white"/>
<path d="M322.29 296.116C321.041 297.285 320.146 298.533 319.715 300.209C320.045 300.187 320.375 300.165 320.705 300.143C320.592 299.963 320.556 299.922 320.406 299.771C320.33 299.693 320.106 299.693 320.03 299.771C319.879 299.923 319.845 299.961 319.733 300.143C319.565 300.415 320.604 300.649 320.723 300.209C321.108 298.785 321.758 297.36 322.734 296.243C322.893 296.061 322.4 296.014 322.29 296.116Z" fill="white"/>
<path d="M317.981 293.271C317.483 293.917 317.086 294.637 316.62 295.307C316.401 295.623 316.21 295.948 316.061 296.303C315.988 296.476 315.955 297.186 315.905 297.237C316.053 297.207 316.202 297.177 316.35 297.148C316.368 297.139 316.386 297.131 316.404 297.122C316.326 297.015 316.048 297.001 315.974 297.122C315.951 297.16 315.928 297.199 315.905 297.237C315.861 297.285 315.837 297.32 315.865 297.386C315.868 297.394 315.872 297.402 315.876 297.411C315.993 297.689 316.884 297.691 316.903 297.343C316.942 296.63 317.23 296.036 317.6 295.44C318.013 294.774 318.263 294.059 318.597 293.355C318.709 293.12 318.092 293.127 317.981 293.271Z" fill="white"/>
<path d="M260.202 156.388H179.943V160.227H260.202V156.388Z" fill="#36586B"/>
<path d="M283.384 160.227H208.692L215.244 107.501H289.935L283.384 160.227Z" fill="#214052"/>
<path d="M206.032 160.227H208.692L215.244 107.501H212.584L206.032 160.227Z" fill="#36586B"/>
<path d="M255.287 132.595C255.287 135.894 252.613 138.569 249.314 138.569C246.015 138.569 243.34 135.894 243.34 132.595C243.34 129.296 246.015 126.621 249.314 126.621C252.613 126.621 255.287 129.296 255.287 132.595Z" fill="#102736"/>
<path d="M111.284 88.0105C111.128 93.1327 108.209 97.8718 107.332 102.889C106.319 108.682 104.57 114.255 103.934 120.137C103.64 122.844 103.574 125.573 103.806 128.286C104.043 131.042 105.379 133.234 106.783 135.552C108.38 138.186 109.341 141.016 109.754 144.067C110.171 147.144 109.859 150.263 110.063 153.351C110.229 155.876 110.865 158.364 112.101 160.577C113.473 163.032 115.828 164.345 118.337 165.402C120.676 166.388 123.415 166.931 125.362 168.637C127.187 170.236 127.812 172.713 127.976 175.031C128.284 179.395 126.829 183.664 126.633 187.999C126.361 194.029 126.302 200.324 127.3 206.288C128.731 214.838 133.265 222.214 138.895 228.643C141.522 231.643 144.158 234.654 147.754 236.497C151.16 238.242 155.152 238.674 158.923 238.643C163.216 238.607 167.463 237.715 171.709 237.19C176.514 236.597 181.221 236.947 186.036 237.038C190.534 237.123 194.799 236.342 198.765 234.174C202.266 232.261 205.143 229.492 207.939 226.698C209.131 225.505 205.807 225.213 205.109 225.628C200.57 228.328 196.778 232.407 191.655 234.022C188.635 234.974 185.25 234.618 182.136 234.461C178.908 234.298 175.716 234.35 172.494 234.624C166.967 235.095 161.424 236.668 155.848 236.12C150.126 235.558 146.476 231.544 142.83 227.515C138.996 223.277 135.483 218.395 133.722 212.905C132.781 209.971 131.928 207.172 131.543 204.096C131.139 200.878 131.112 197.619 131.12 194.381C131.127 191.804 131.032 189.186 131.258 186.617C131.458 184.358 131.927 182.124 132.227 179.877C132.8 175.586 132.632 171.275 129.616 167.913C127.453 165.503 123.736 164.807 120.866 163.605C116.685 161.856 115.046 158.346 114.512 154.025C114.012 149.98 114.485 145.944 113.608 141.923C112.762 138.044 110.528 135.089 108.735 131.652C107.098 128.513 107.491 124.262 107.726 120.843C108.004 116.796 108.729 112.775 109.521 108.802C110.252 105.141 110.944 101.45 111.998 97.8675C112.94 94.6643 113.843 91.334 113.027 88.0097C112.888 87.4434 111.303 87.3835 111.284 88.0105Z" fill="#318DAA"/>
</svg>
