<svg width="90" height="90" viewBox="0 0 90 90" fill="none" xmlns="http://www.w3.org/2000/svg">
<mask id="mask0_63_2319" style="mask-type:alpha" maskUnits="userSpaceOnUse" x="0" y="0" width="90" height="90">
<path d="M0 0H90V90H0V0Z" fill="#D9D9D9"/>
</mask>
<g mask="url(#mask0_63_2319)">
<path d="M32.965 77.4203L59.0807 77.9632L59.6769 49.4595L33.5612 48.9124C33.5612 48.9124 35.8756 71.4313 32.965 77.4203Z" fill="#F7B6A0"/>
<path d="M34.2996 70.2576C40.2254 69.7737 45.8507 69.5454 51.6662 67.8408C54.4566 67.0241 57.0062 66.0035 59.3598 64.6444L59.6759 49.4595L33.5602 48.9124C33.5602 48.9124 34.8426 61.4087 34.2996 70.2576Z" fill="#F29381"/>
<path d="M16.7372 28.5469C18.3806 32.6865 20.0706 37.4998 22.9425 41.1268C26.2289 45.2764 31.04 45.5727 33.2546 40.3921C35.3427 35.5156 35.269 29.4979 34.3692 24.4866C33.8733 21.7495 32.9546 18.6507 30.391 16.7873C26.4023 13.8824 21.1298 14.7891 18.1622 18.2306C15.3754 21.46 15.2897 24.9015 16.7372 28.5469Z" fill="#55240D"/>
<path d="M20.94 35.5078C21.2175 40.4862 21.9506 45.4447 23.2649 50.2579C24.5937 55.1386 26.4106 64.2854 31.9178 66.3244C33.6203 66.9593 35.0061 66.9101 36.972 66.7879C44.4774 66.3202 52.4647 61.3277 57.2371 55.7573C66.131 45.3778 66.1085 20.1928 57.1964 10.4299C49.0639 1.52191 23.2037 6.10837 21.4668 20.3156C20.8663 25.2156 20.6584 30.3638 20.94 35.5078Z" fill="#F7B6A0"/>
<path d="M26.5533 47.6937C27.0879 47.9367 28.1926 48.4817 28.7783 48.6307C30.9887 49.1799 33.0136 48.9285 35.2 48.3224C38.2742 47.469 41.3337 45.5628 44.594 46.6627C46.5598 47.3243 48.2518 47.7611 50.328 47.665C52.9548 47.5448 55.2922 45.7645 56.3373 43.3926C57.1394 41.5553 57.2946 39.1573 58.358 37.4935C59.7177 35.3724 61.6156 33.9297 63.8877 33.1986C63.8407 41.9023 63.5203 54.4603 59.1314 59.5813C54.3589 65.1517 42.2811 70.2466 34.7814 70.7185C32.8219 70.8408 31.4319 70.8857 29.7294 70.2571C24.2222 68.2181 24.5937 55.1375 23.2649 50.2574C22.9586 49.1386 22.6932 48.0161 22.4481 46.8832C23.6772 46.6873 24.9611 46.9689 26.5533 47.6937Z" fill="#703218"/>
<path d="M58.9809 32.7613C57.803 30.9036 60.4545 28.5014 61.9986 27.821C63.5349 27.1438 66.398 27.0968 67.3548 28.7757C67.4316 28.9158 67.4316 29.0563 67.3548 29.1964C67.3203 29.2497 67.2853 29.302 67.2508 29.3547C67.2095 29.199 67.1677 29.0433 67.1264 28.8881C67.7185 29.5491 67.9061 30.6486 68.1626 31.4956C68.5096 32.64 68.6455 33.8173 68.4083 34.9931C68.3842 35.1107 68.077 35.1295 68.0362 35.0176C67.6302 33.9062 67.2821 32.7759 66.8474 31.6733C66.6331 31.1293 66.3269 30.6089 66.0594 30.0884C66.1655 29.7116 66.0071 29.6171 65.5849 29.8036C65.2787 29.8052 64.9777 29.7655 64.6825 29.6845C63.4811 29.3563 63.6645 29.8031 65.0043 29.2941C64.5194 29.4786 64.082 30.0048 63.676 30.3241C63.1404 30.7447 62.7877 31.3023 62.482 31.8975C62.1366 32.5721 62.0038 32.6557 61.3219 33.0643C60.7387 33.4139 59.3858 33.3998 58.9809 32.7613Z" fill="#F49C81"/>
<path d="M57.2371 28.4428C57.5616 29.6881 57.8271 35.4033 58.2253 36.5079C58.6214 37.6163 61.1322 35.8547 61.1322 35.8547C62.9 33.9929 60.6139 29.7905 63.7043 29.1128C67.0538 28.376 62.1633 49.2718 62.2385 51.5559C64.8042 48.8308 73.8204 34.773 75.7167 25.0363C77.1214 17.8287 75.4863 13.4727 73.8204 10.6823C65.7271 -2.84875 62.8081 -1.99803 55.3021 -0.948738C51.8747 -0.469033 49.2541 7.26111 48.0004 10.6473C46.6554 14.2727 49.1214 17.0402 51.6056 19.3676C54.7101 22.2804 55.7081 22.7355 57.2371 28.4428Z" fill="#55240D"/>
<path d="M66.6165 29.1755C70.1234 32.2089 68.7903 41.8861 62.4564 45.4828C60.697 43.7908 60.4028 38.9243 60.0313 36.5425C59.666 34.1993 59.4314 31.9456 60.7315 29.8491C61.1318 29.2042 64.0346 26.9489 66.6165 29.1755Z" fill="#F7B6A0"/>
<path d="M63.175 36.0605C63.2831 36.4984 63.3385 36.9468 63.5021 37.3695C63.5549 37.5038 63.6489 37.5352 63.7649 37.5958C63.4472 37.4949 63.1159 37.4976 62.771 37.6042C62.4596 37.7871 62.376 37.8184 62.5207 37.6982C62.642 37.589 62.782 36.9118 62.8207 36.5737C62.9513 35.4199 62.399 33.8376 63.8125 33.3673C63.6374 33.4791 63.4618 33.591 63.2868 33.7028C63.6176 33.2722 64.0351 33.0893 64.5927 33.1646C64.8341 33.1964 65.0441 33.2795 65.2438 33.4206C65.4512 33.568 65.2432 33.4478 65.0384 33.3882C65.2485 33.4493 65.4052 33.5497 65.5818 33.6714C66.3678 34.2138 65.9508 35.9377 65.8008 36.7017C65.574 37.8545 65.0274 38.725 63.7597 38.8572C62.9691 38.9393 62.238 38.7695 61.5932 38.3096C60.7811 37.7311 61.1673 36.8898 61.3006 36.0611C61.4093 35.3901 63.0198 35.435 63.175 36.0605Z" fill="#F29381"/>
<path d="M62.3383 33.7253C62.6618 31.6565 65.7297 32.1461 66.8459 33.1479C68.6764 34.7903 67.6177 38.3938 65.5369 39.2633C65.2949 39.3642 64.4567 39.4948 64.3454 39.1092C64.0925 38.2313 64.7431 37.193 64.9443 36.3313C65.0984 35.6692 64.983 34.8812 64.7797 34.2452C64.6778 33.9913 64.5398 33.7572 64.3674 33.5434C64.4291 33.521 64.4907 33.499 64.5529 33.4766C64.2671 33.4943 64.0356 33.6114 63.8579 33.8267C63.6353 34.0859 62.2474 34.3053 62.3383 33.7253Z" fill="#F29381"/>
<path d="M35.6624 30.6261C36.8633 25.8735 46.437 24.9496 47.1309 30.334C47.2292 31.0964 47.1826 31.8144 46.8613 32.4676C46.3539 33.4996 45.6845 32.9274 44.9639 32.7367C44.411 32.5899 43.8519 32.7999 43.2771 32.7398C41.8072 32.5867 40.3079 32.3401 38.8317 32.5757C38.1822 32.6787 37.6027 32.941 36.9437 32.9603C36.5785 32.9713 36.2393 32.6024 35.8443 32.6296C35.4518 32.6562 35.6102 30.8335 35.6624 30.6261Z" fill="#55240D"/>
<path d="M27.5921 32.5824C27.348 32.6948 27.1396 32.9425 26.9405 33.1165C26.6003 33.4138 25.8629 33.3072 25.4407 33.3527C24.7191 33.43 24.0084 33.5899 23.3066 33.7702C22.6001 33.9521 21.8973 33.7859 21.1553 33.9364C20.7085 34.0273 20.455 30.4264 21.1553 30.0695C21.0554 30.2581 20.9551 30.4473 20.8553 30.6359C20.8841 30.4567 20.9468 30.291 21.0424 30.139C21.2958 29.8218 22.1168 29.6326 22.4334 29.4053C23.13 28.9058 24.2974 29.1007 25.1079 29.1482C26.4028 29.2245 27.4656 29.5893 27.7347 31.0148C27.7912 31.3111 27.9589 32.4131 27.5921 32.5824Z" fill="#55240D"/>
<path d="M26.2674 36.73C26.3657 38.0076 25.8959 39.0794 25.2139 39.1327C24.5362 39.1839 23.9055 38.1958 23.8077 36.9181C23.7116 35.6462 24.1793 34.5687 24.8628 34.5196C25.539 34.4684 26.1718 35.4607 26.2674 36.73Z" fill="#7F482E"/>
<path d="M40.689 36.5179C40.7909 37.7976 40.3174 38.8714 39.6334 38.9227C38.9556 38.9739 38.3312 37.9836 38.2288 36.7081C38.1368 35.4362 38.6066 34.3628 39.2822 34.3095C39.96 34.2562 40.5907 35.2481 40.689 36.5179Z" fill="#7F482E"/>
<path d="M27.8597 50.6545C29.3981 51.5267 31.0353 52.4124 32.8652 51.9546C34.0823 51.6505 35.0751 50.0499 36.3021 49.5357C36.8895 49.2886 38.8213 49.0466 38.9138 50.0656C39.0225 51.2643 37.4167 52.1866 36.5796 52.8863C35.6421 53.6707 33.9339 53.9848 32.7482 53.9973C30.5775 54.0203 26.3793 53.8588 26.095 51.0125C26.0297 50.3556 27.5514 50.48 27.8597 50.6545Z" fill="#F18C7E"/>
<path d="M29.8809 34.6377C30.4959 36.8748 31.5531 38.57 30.51 40.8044C29.9796 41.9404 27.7572 45.7216 30.8967 45.2545C32.7737 44.9754 34.6784 46.7662 31.9747 47.1691C29.6739 47.5114 26.2716 47.1179 25.1753 44.7189C24.521 43.2876 25.8295 41.8312 26.6656 40.8243C28.2165 38.9561 27.8105 37.0357 27.8507 34.7731C27.8628 34.1079 29.7236 34.0635 29.8809 34.6377Z" fill="#F29381"/>
<path d="M21.6156 115.303C25.112 93.9889 14.3997 92.8806 14.3997 92.8806C2.34643 89.7944 -3.25903 108.129 -3.25903 108.129C-3.25903 108.129 -11.9507 148.694 -11.8341 166.877C-11.8341 166.877 0.945962 174.812 6.97989 163.479L21.6156 115.303Z" fill="#F7B6A0"/>
<path d="M54.9101 73.8909L95.2628 88.7387L73.0464 188.22H19.8682L5.23878 90.7145L36.0245 73.8909H54.9101Z" fill="#F7B6A0"/>
<path d="M34.0116 73.8909L7.04469 87.4527L18.1918 187.495C28.9408 192.96 34.9647 189.483 51.5841 189.459C56.8953 189.448 72.6435 192.36 74.9563 186.781C76.3568 183.39 80.3062 176.252 80.186 172.651C80.0674 169.041 84.0132 163.186 84.3116 159.586C84.6058 155.991 84.5405 152.411 86.2999 149.177C89.5842 143.162 89.5351 134.244 91.0316 127.481C92.5444 120.616 93.577 117.215 93.577 110.159C93.577 106.409 96.7939 102.211 97.7167 98.5648C98.6881 94.6843 98.1452 90.0143 94.3159 88.2648C90.9151 86.7091 87.0451 85.7356 83.5199 84.4355L60.3379 75.6153C60.3379 75.6153 39.1661 82.3656 34.0116 73.8909Z" fill="#007AB9"/>
<path d="M17.7905 150.469L24.3632 114.666C24.3632 114.666 33.9222 93.8472 17.2778 82.8595C17.2778 82.8595 -0.676585 85.6823 -4.00421 102.598L-13 138.342C-12.9995 138.343 -12.0996 147.244 17.7905 150.469Z" fill="#007AB9"/>
<path d="M122.428 161.471L102.961 99.61C99.0069 89.161 92.2889 87.4058 90.9193 87.4058C70.1232 87.4037 68.2901 113.08 68.2901 113.08L78.3597 158.445C78.3597 158.445 101.005 171.418 122.428 161.471Z" fill="#007AB9"/>
<path d="M29.3525 78.2553C30.7895 77.1878 32.0609 77.077 33.1655 77.923C33.6792 78.1492 34.1908 78.3834 34.6982 78.6243C36.0506 79.2513 37.4562 79.7692 38.9356 79.9886C41.3759 80.3497 43.962 80.5582 46.4034 80.2551C48.6614 79.9745 50.5692 80.4563 52.7833 79.5392C53.6497 79.1808 54.6232 78.7946 55.5664 78.7173C56.4286 78.5919 56.5305 78.6164 55.8737 78.7889C56.5023 78.5051 57.1252 78.26 57.7747 78.0259C58.6542 77.7093 61.8151 77.6408 61.8198 79.1635C61.8292 81.8505 57.4925 81.9346 55.6124 82.5805C52.4096 83.682 48.6264 83.6517 45.3024 83.5018C42.3515 83.3685 38.956 83.0785 36.118 82.2131C34.2472 81.6425 29.1973 80.3309 29.1105 77.8676C29.8364 78.1383 30.5617 78.4095 31.2875 78.6802C30.5486 78.7324 29.9278 78.7674 29.3525 78.2553Z" fill="#0059A6"/>
<path d="M85.4049 87.5375C84.5844 89.4511 83.6888 91.1258 82.4645 92.8289C80.9182 94.9786 79.8783 97.1457 78.7575 99.5379C76.5235 104.306 77.6287 110.617 78.1691 115.633C78.4627 118.36 79.2084 121.028 79.6082 123.739C79.9724 126.213 80.1088 128.647 80.3753 131.123C80.6726 133.886 81.2589 136.613 81.5829 139.375C81.9409 142.429 81.3598 145.462 81.3869 148.512C81.3911 148.949 80.2546 148.932 80.1067 148.597C79.0553 146.216 78.4121 143.779 77.8676 141.24C77.2039 138.144 76.0856 135.169 75.3724 132.093C74.6805 129.105 73.5413 126.258 72.5997 123.343C71.7202 120.621 71.2724 117.532 70.9186 114.701C70.6662 112.682 69.9545 110.094 70.3193 108.085C70.8486 105.162 70.8909 102.344 71.8106 99.4585C73.6835 93.5798 78.3588 90.3823 83.0978 87.0609C83.5174 86.7662 85.8323 86.5415 85.4049 87.5375Z" fill="#0059A6"/>
<path d="M26.5778 78.516C26.1561 80.1631 25.0937 81.238 24.2326 82.6536C23.0819 84.5442 21.4431 87.5149 21.0883 89.6955C20.7398 91.837 20.5579 94.004 20.1885 96.1433C19.8112 98.324 20.0767 100.262 20.0652 102.438C20.0385 107.184 19.8002 111.902 19.7762 116.658C19.7652 118.89 19.5416 121.13 19.5301 123.343C19.5181 125.643 18.3779 128.303 17.6123 130.475C17.4508 130.933 15.915 130.921 15.9323 130.363C16.0734 125.806 15.9778 121.213 15.9548 116.658C15.9292 111.634 16.1183 106.649 16.0906 101.631C16.0786 99.4495 15.9187 97.5673 16.2746 95.3689C16.6216 93.2196 16.7736 91.0385 17.0997 88.8861C17.4012 86.8967 19.1173 84.6905 20.0835 82.963C21.266 80.8477 23.0688 79.8475 24.8314 78.285C25.0859 78.0598 26.7356 77.8999 26.5778 78.516Z" fill="#0059A6"/>
<path d="M53.5855 5.72795C53.6325 9.96952 44.6691 19.7183 40.1888 19.2856C41.0379 17.267 40.9888 14.9641 41.4157 12.9742C37.6068 15.7317 32.1953 19.8468 27.9641 21.7495C26.131 22.5803 21.2425 24.2603 19.6602 22.9189C18.6292 22.0473 19.3091 20.2529 18.6904 19.2632C17.535 17.4117 17.6369 18.5243 15.8388 17.4812C5.98394 11.7352 15.8038 -3.90899 23.3218 -8.24619C30.8967 -12.6205 42.4541 -13.0286 50.6582 -10.2141C54.1405 -9.018 57.7696 -7.06678 59.5374 -3.80657C60.9885 -1.12848 62.5279 8.10609 58.2148 8.93486L53.5855 5.72795Z" fill="#55240D"/>
</g>
</svg>
