<svg width="90" height="90" viewBox="0 0 90 90" fill="none" xmlns="http://www.w3.org/2000/svg">
<mask id="mask0_63_2264" style="mask-type:alpha" maskUnits="userSpaceOnUse" x="0" y="0" width="90" height="90">
<rect width="90" height="90" fill="#D9D9D9"/>
</mask>
<g mask="url(#mask0_63_2264)">
<path d="M45.2359 3.46041C45.6523 10.4809 53.5534 12.1123 58.8938 12.9653C63.8069 13.7473 67.1103 17.4868 67.808 22.6222C68.4329 27.2228 59.3443 29.0738 57.3518 33.12C55.405 37.0651 52.5012 41.0523 52.9569 45.7142C53.4466 50.7057 55.2358 53.6881 50.8466 57.5852C47.4363 60.6045 44.015 62.9396 43.244 67.7348C41.3641 79.454 58.4492 91.0664 63.6608 100.594C64.8539 102.769 66.0581 107.361 68.1176 108.869C70.132 110.352 73.0751 108.776 74.8873 107.561C80.7342 103.649 84.2514 96.7446 82.8168 89.8339C80.982 80.9705 76.6546 73.376 80.3854 64.2684C83.1824 57.4478 91.0044 53.7222 92.9293 46.4967C93.8863 42.9062 93.7338 38.9784 92.0013 35.6582C90.1722 32.1549 86.5534 30.1041 84.3305 26.8625C81.2921 22.4276 81.1905 16.8625 79.7559 11.8507C77.1501 2.71133 69.2715 -3.4307 61.6128 -8.33219C56.9025 -11.34 50.6219 -11.8777 47.1839 -7.29381C45.7545 -5.392 45.4449 4.58308 46.0242 6.60905L45.2359 3.46041Z" fill="#B7793E"/>
<path d="M67.566 78.7592C67.566 78.7592 47.8134 81.1391 55.6302 108.855L76.002 160.83C76.002 160.83 102.575 156.871 108.709 141.016L86.4974 92.2727C86.4974 92.2727 81.2633 80.7343 67.566 78.7592Z" fill="#E474AB"/>
<path d="M28.8768 69.5696L-11.7426 84.516L10.6269 184.652H64.1557L67.3131 78.6576L47.8868 69.5696H28.8768Z" fill="#F7B6A0"/>
<path d="M50.3009 70.754H26.2659V42.0566H50.3009C50.3009 42.0566 47.7349 64.6674 50.3009 70.754Z" fill="#F7B6A0"/>
<path d="M49.4456 66.8678C48.4719 58.1846 50.3009 42.056 50.3009 42.056H26.2659V51.364C30.8463 60.4665 39.0853 68.05 49.4456 66.8678Z" fill="#F2937C"/>
<path d="M21.15 71.7104C15.3822 73.8346 5.8432 78.0529 0.0748437 80.1857C-3.47061 81.4944 -7.36489 82.4762 -10.7919 84.0408C-14.6412 85.8051 -15.1927 90.5038 -14.208 94.4091C-11.0513 106.93 -7.5676 119.384 -4.85495 132.012C-2.98664 140.67 -1.29854 149.373 -0.00949093 158.135C1.14441 165.946 3.05199 174.019 1.63358 181.925C0.558798 187.904 26.8785 185.898 32.2247 185.904C48.9552 185.923 54.8304 187.192 65.6521 181.697L67.5597 78.7725L54.4532 72.6415C54.4532 72.6415 41.7695 89.4539 21.15 71.7104Z" fill="#E474AB"/>
<path d="M70.4363 80.1239C71.3309 99.0997 75.4221 110.774 75.9794 123.436C76.1879 128.084 75.1408 131.984 73.481 136.278C69.2772 147.168 67.4822 160.549 66.7222 165.851C63.2218 190.274 59.3558 189.771 46.559 187.022C38.9899 185.395 37.4028 156.633 36.0468 149.624C33.959 138.813 35.6696 125.813 43.8243 117.783C49.6372 112.046 57.1895 110.437 60.2117 102.179C62.4231 96.1347 52.3105 87.626 58.9284 85.0849C59.0468 85.3436 63.0312 76.3422 62.9579 76.6183" fill="#E474AB"/>
<path d="M66.3393 31.6877C64.5386 40.461 59.8958 55.5455 52.6646 59.8758C43.8965 65.1238 26.1028 49.8897 21.5051 41.7495C15.7477 31.5636 18.2692 15.6607 22.5909 5.1451C27.5264 -6.83285 41.3248 -12.3425 53.3229 -6.55741C65.3096 -0.77461 68.7026 20.1851 66.3393 31.6877Z" fill="#F7B6A0"/>
<path d="M23.064 4.67032C24.0602 2.41681 25.3654 0.407599 26.9132 -1.33423L25.2759 28.0019L23.295 38.9669L21.6912 42.2536C21.4775 41.907 21.2748 41.5611 21.1004 41.232C15.5902 30.9167 18.4888 15.078 23.064 4.67032Z" fill="#F2937C"/>
<path d="M15.5734 18.9411C11.7525 22.1573 13.0468 32.6129 19.8275 36.5863C21.7409 34.7879 22.1296 29.5491 22.5621 26.9803C22.9953 24.4594 23.2823 22.0361 21.9153 19.7548C21.4879 19.0572 18.3929 16.5778 15.5734 18.9411Z" fill="#F7B6A0"/>
<path d="M19.2066 26.2943C19.0842 26.7361 19.0091 27.1906 18.8722 27.6284C18.8243 27.782 18.7648 27.9241 18.6233 28.0056C18.1532 28.2753 19.5208 27.8825 19.9435 28.2088C20.0261 28.2723 19.8067 27.95 19.7553 27.8189C19.6583 27.5694 19.638 27.2854 19.6092 27.022C19.485 25.8739 20.1289 23.8306 18.5523 23.4852C18.7469 23.6094 18.9421 23.7336 19.1368 23.8577C18.5719 23.1283 17.4758 23.0122 16.8122 23.7087C17.0657 23.6134 17.3187 23.5176 17.5722 23.4223C16.2283 23.6573 16.0822 24.5357 16.1446 25.7058C16.1919 26.5877 16.3017 27.5377 16.6915 28.3411C17.2378 29.4678 18.781 29.6169 19.8546 29.3622C20.3923 29.2345 20.8543 28.9336 21.2442 28.5513C21.7587 28.0465 21.3273 27.0335 21.2407 26.4283C21.1483 25.7843 19.3735 25.6891 19.2066 26.2943Z" fill="#F2937C"/>
<path d="M20.1429 23.9021C19.8484 21.6179 16.4582 22.1643 15.2402 23.2275C13.2316 24.9809 14.3225 28.9052 16.5865 29.8501C16.8654 29.9667 17.7634 30.1042 17.9032 29.6797C18.2053 28.7643 17.5088 27.5712 17.3107 26.6615C17.1917 26.1141 17.2795 25.5313 17.3678 24.9885C17.4192 24.6645 17.5267 24.3624 17.6912 24.0823C17.786 23.9465 17.8813 23.8109 17.976 23.6751C17.4718 23.5562 17.6341 23.6687 18.4623 24.0135C18.7112 24.3092 20.2261 24.546 20.1429 23.9021Z" fill="#F2937C"/>
<path d="M36.3216 -10.3357C37.0308 -9.51156 37.4923 -8.43912 37.74 -7.47695C38.9557 -5.13623 42.0732 4.21113 42.7091 5.6717C44.4313 9.62489 41.1053 11.9662 38.1848 13.8622C37.2619 14.4617 36.328 15.0525 35.4103 15.6607C32.6416 17.4862 29.9856 19.4671 28.1791 22.3265C26.9859 24.2144 25.281 29.7552 22.2871 29.3948C22.6925 26.4067 22.7884 20.163 18.5621 18.5223C18.0556 18.2127 16.1647 18.0106 13.9701 21.0155C13.9701 21.0155 10.8572 -9.46651 36.3216 -10.3357Z" fill="#B7793E"/>
<path d="M43.3225 7.21369L36.3217 -10.3357C40.9985 -14.5845 53.9582 -10.8757 53.9582 -10.8757C58.4433 -9.59242 74.6621 2.37174 77.7906 16.6205C77.7906 16.6205 82.1347 37.5097 62.1349 46.2997C66.8117 33.7506 68.3988 25.2869 64.9769 15.7929C61.4707 16.2457 53.6545 13.8062 51.2231 12.0309C48.5503 10.0812 44.9147 8.1424 42.7086 5.67173" fill="#B7793E"/>
<path d="M17.4984 79.6115C18.1498 83.1524 23.1247 85.2349 26.0989 86.4587C30.7527 88.3732 35.4393 88.9259 40.4263 89.0062C45.1649 89.083 49.2688 88.1232 53.4998 86.0903C56.2408 84.7735 61.2647 81.8523 61.4645 78.4236C61.5165 77.5336 60.2326 76.9318 59.5477 76.7863C57.68 76.3895 57.3271 76.3023 55.6413 76.7863C53.9641 77.2674 53.3277 78.7631 52.1998 79.9338C50.0479 82.1671 46.726 83.9944 43.7557 84.8191C40.2224 85.7997 35.5883 85.0813 32.1006 84.2416C27.746 83.1934 24.2416 80.7758 20.1885 79.0646C19.7675 78.8879 17.3084 78.5806 17.4984 79.6115Z" fill="#CF5490"/>
<path d="M46.7611 34.2455C46.5301 35.4103 44.1218 35.911 41.3814 35.3653C38.6353 34.8224 36.5978 33.441 36.8288 32.2813C37.0598 31.1164 39.4681 30.6157 42.2148 31.1586C44.9546 31.7015 46.9921 33.0858 46.7611 34.2455Z" fill="#F39D94"/>
<path d="M64.9608 37.8527C64.7298 39.0147 62.7547 39.6003 60.5433 39.1643C58.3314 38.7254 56.7281 37.4312 56.9586 36.2663C57.1896 35.1043 59.1647 34.5164 61.3767 34.9547C63.5874 35.3937 65.1912 36.6908 64.9608 37.8527Z" fill="#F39D94"/>
<path d="M61.6458 28.8433C60.6611 28.711 59.6482 29.9516 59.3894 31.601C59.1191 33.2527 59.7047 34.696 60.6894 34.8201C61.6683 34.9495 62.6813 33.7113 62.9516 32.0573C63.2046 30.4073 62.6253 28.964 61.6458 28.8433Z" fill="#7F482E"/>
<path d="M44.6901 25.4722C43.7054 25.3457 42.6982 26.5811 42.4279 28.2351C42.1692 29.8897 42.7485 31.3301 43.7337 31.46C44.7184 31.5807 45.7314 30.3454 45.9901 28.6943C46.2546 27.0396 45.6748 25.6015 44.6901 25.4722Z" fill="#7F482E"/>
<path d="M53.8261 27.7477C52.6496 28.6331 52.8131 30.3818 53.081 31.6743C53.4073 33.2475 54.738 34.3818 55.0781 35.9116C55.6071 38.2882 51.4305 38.5019 49.9578 38.4718C50.4706 38.663 50.984 38.8547 51.4969 39.0465C51.4605 38.9985 51.4241 38.95 51.3877 38.9021C50.8304 38.1657 49.4501 38.2616 48.7623 38.734C48.7011 38.7762 48.6404 38.8178 48.5792 38.8599C47.602 39.531 49.5737 40.0438 49.9578 40.0369C52.3181 39.9942 55.5956 39.6021 57.1353 37.5859C58.0576 36.3777 57.0001 34.8906 56.3134 33.8949C55.6481 32.9299 55.103 32.0046 54.8656 30.8409C54.7022 30.0416 54.4781 28.7058 54.8927 27.9689C55.1295 27.5473 54.0138 27.6062 53.8261 27.7477Z" fill="#F2937C"/>
<path d="M46.3562 44.2766C46.3562 44.2766 49.9294 48.5001 54.2516 45.5992" stroke="#EE756D" stroke-width="4.989" stroke-miterlimit="10" stroke-linecap="round" stroke-linejoin="round"/>
<path d="M40.83 23.8218C42.1121 23.3713 43.5837 22.8654 44.9073 23.4123C46.2178 23.954 46.9605 25.2281 48.1739 25.909C48.6931 26.2006 51.4998 26.4374 51.3249 25.2696C51.0147 23.1998 47.7269 21.8541 45.8949 21.5289C43.4162 21.0894 41.1754 21.5683 39.1055 22.9768C38.1907 23.5994 40.4315 23.9621 40.83 23.8218Z" fill="#B7793E"/>
<path d="M67.4141 27.4012C66.1424 25.7928 64.5496 25.0905 62.5161 24.9057C60.5716 24.7289 57.5066 25.0038 56.2193 26.6354C55.4853 27.5658 58.1263 27.8181 58.4901 27.7483C59.5632 27.5409 60.4901 27.0096 61.5476 26.7994C62.8447 26.5418 64.2406 27.37 65.3073 28.0024C65.6653 28.2144 67.9887 28.1283 67.4141 27.4012Z" fill="#B7793E"/>
<path d="M35.1569 19.9828C32.9507 27.2897 28.297 32.8329 27.8638 40.7901C27.3013 50.9789 32.5967 57.1861 36.1139 66.0183C39.6027 74.7996 36.3783 78.8856 32.2646 86.6037C26.8058 96.826 35.9169 101.944 35.7708 111.705C35.6299 121.295 26.5361 120.327 19.4793 119.351C9.23159 117.932 4.29604 109.193 3.08092 99.8118C2.5519 95.7766 0.9198 95.0986 -3.74548 95.7096C-8.26984 96.3004 -9.38967 98.2195 -12.3559 94.0267C-16.942 87.5439 -18.3772 79.3754 -15.0743 72.0679C-11.7032 64.6172 -4.96694 60.0842 -6.03653 51.2884C-7.03276 43.058 -6.0423 38.6827 1.27903 34.2115C7.90271 30.1595 9.28704 26.271 8.62865 18.5078C8.05459 11.7438 10.0355 8.14757 14.892 3.44302C17.7507 0.677234 24.2733 -4.16251 28.3646 -1.77674C33.8349 1.42277 36.8456 14.386 35.1569 19.9828Z" fill="#B7793E"/>
</g>
</svg>
