<svg width="90" height="90" viewBox="0 0 90 90" fill="none" xmlns="http://www.w3.org/2000/svg">
<mask id="mask0_63_2223" style="mask-type:alpha" maskUnits="userSpaceOnUse" x="0" y="0" width="90" height="90">
<rect width="90" height="90" fill="#D9D9D9"/>
</mask>
<g mask="url(#mask0_63_2223)">
<path d="M69.7451 57.7817C65.871 63.1768 61.5614 70.6225 54.6307 71.0245C47.8049 71.4173 39.6115 66.597 33.897 63.2972C20.5944 55.6101 16.8907 43.4854 19.8376 29.5211C23.3903 12.744 44.7105 10.2962 57.5921 13.7305C73.4488 17.9624 78.4915 45.6103 69.7451 57.7817Z" fill="#733014"/>
<path d="M65.1466 5.58021C63.4106 2.18819 60.9176 1.67747 57.7436 0.662819C54.0583 -0.517376 53.4102 -2.80931 50.2692 -4.33031C41.9529 -8.35346 37.5157 6.83372 39.1949 12.3919C41.2572 19.209 50.0657 24.9139 58.1737 23.606C66.003 22.3403 68.2925 11.7298 65.1466 5.58021Z" fill="#733014"/>
<path d="M-69.9908 173.363L-70 167.176C-35.0316 163.441 -19.0283 157.847 -19.0283 157.847C-12.1073 154.294 -10.8208 149.949 -7.83079 143.438C-1.09917 128.773 3.45171 114.958 9.58232 100.025C11.4179 95.7464 15.0415 90.4955 18.8923 89.4405C28.9922 86.6757 33.628 86.4583 36.3855 89.0007C35.8791 106.203 28.5188 125.901 9.3551 152.872C2.84583 162.033 -4.32076 171.366 -14.7376 172.686C-14.7376 172.686 -46.5796 175.151 -69.9908 173.363Z" fill="#F7B6A0"/>
<path d="M57.2042 83.3289L91.3493 95.8935L72.5501 180.071H27.5527L18.8914 89.441L41.2242 83.3289H57.2042Z" fill="#F7B6A0"/>
<path d="M39.1993 84.3245H59.3991V60.2012H39.1993C39.1993 60.2012 41.3568 79.2066 39.1993 84.3245Z" fill="#F7B6A0"/>
<path d="M39.9189 81.0558C40.7374 73.7567 39.1998 60.2012 39.1998 60.2012H59.3996V68.0256C55.5531 75.6772 48.6278 82.052 39.9189 81.0558Z" fill="#F2937C"/>
<path d="M18.6787 108.973L26.2949 177.583C35.3917 182.207 40.4106 179.619 54.3894 181.121C71.2491 182.931 74.007 174.21 74.007 174.21L86.8834 130.041C82.0912 129.554 77.536 126.981 74.3003 122.342C70.8519 117.396 70.6437 111.208 70.7903 105.406C70.932 99.9429 71.3248 94.408 73.089 89.176L67.791 87.2219C67.791 87.2219 61.0264 109.29 45.1789 110.172C45.1789 110.172 33.6221 113.122 26.1244 87.4613L21.0342 88.8546C21.0342 88.8546 23.1441 97.7665 18.6787 108.973Z" fill="#302D4D"/>
<path d="M25.7177 51.4854C27.2314 58.8603 31.1341 71.5381 37.2128 75.1806C44.5833 79.5941 59.5365 66.7843 63.4063 59.9415C68.2455 51.3815 66.1264 38.013 62.4931 29.1763C58.3442 19.1051 46.7452 14.4736 36.6594 19.3367C26.5833 24.1973 23.7306 41.8138 25.7177 51.4854Z" fill="#F7B6A0"/>
<path d="M62.0954 28.7739C61.2628 26.8796 60.1603 25.1906 58.8597 23.7264L60.2317 48.3867L61.9017 57.602L63.245 60.3668C63.4295 60.0736 63.5999 59.7853 63.7465 59.508C68.3823 50.8374 65.9414 37.5208 62.0954 28.7739Z" fill="#F2937C"/>
<path d="M68.392 40.7681C71.5991 43.4766 70.5209 52.2632 64.8156 55.6057C63.2023 54.0896 62.881 49.6878 62.5115 47.5284C62.1523 45.4093 61.911 43.3722 63.0601 41.4541C63.4155 40.8652 66.0171 38.784 68.392 40.7681Z" fill="#F7B6A0"/>
<path d="M63.6281 47.0648C63.5582 47.5304 63.2553 48.2629 63.5073 48.712C63.7359 49.1188 64.3025 49.3659 64.7137 49.5121C65.6138 49.8325 66.874 49.5927 67.4066 48.7533C67.7916 48.1469 67.8508 47.2774 67.9018 46.5808C67.9766 45.5583 67.8906 44.7583 66.7104 44.5398C66.923 44.6199 67.1362 44.7 67.3488 44.7806C66.792 44.1941 65.871 44.2947 65.3957 44.9059C65.5593 44.8015 65.723 44.6971 65.8871 44.5927C64.6001 44.8826 65.0744 46.4934 65.0079 47.4444C64.9787 47.8619 64.9156 48.2571 64.6807 48.61C64.9695 48.1765 66.3046 48.7028 65.7764 48.3625C65.4802 48.1712 65.455 47.3842 65.3691 47.0648C65.2152 46.4929 63.7233 46.4346 63.6281 47.0648Z" fill="#F2937C"/>
<path d="M65.9584 45.0321C66.1138 44.8388 66.3186 44.7316 66.573 44.7112C66.2628 44.7068 66.2754 44.8335 66.6114 45.0913C66.941 45.6156 66.9696 46.303 66.9658 46.9031C66.9599 47.8352 66.1303 48.8838 66.4332 49.798C66.5512 50.1543 67.3056 50.0393 67.5401 49.9412C69.5112 49.1159 70.1651 46.137 68.7946 44.5155C67.8562 43.4057 64.8025 43.0057 64.5461 44.9389C64.4743 45.4797 65.7497 45.2787 65.9584 45.0321Z" fill="#F2937C"/>
<path d="M50.9503 16.1602C50.3541 16.8505 49.9662 17.752 49.7536 18.5633C48.7316 20.5333 46.111 28.3883 45.5814 29.6161C44.1293 32.9368 46.9247 34.9049 49.3846 36.5041C50.1604 37.008 50.9411 37.5022 51.7169 38.0129C54.0394 39.5461 56.2769 41.2132 57.7907 43.6187C58.7936 45.2033 60.2316 49.8605 62.7483 49.56C62.408 47.0433 62.3274 41.7972 65.8801 40.4185C66.3059 40.1583 67.8905 39.9879 69.7402 42.5119C69.7402 42.5119 72.3559 16.8908 50.9503 16.1602Z" fill="#733014"/>
<path d="M45.061 30.9124L50.9504 16.1602C47.0146 12.5886 36.1248 15.7063 36.12 15.7087C32.3546 16.785 24.9414 20.8883 22.3018 32.866C22.3018 32.866 19.0802 42.0483 29.2461 63.7661C25.3196 53.2191 23.9855 46.1044 26.862 38.1217C29.8093 38.5048 36.3846 36.4541 38.4279 34.9593C40.6655 33.3223 43.7308 31.693 45.5805 29.6162" fill="#733014"/>
<path d="M42.1705 53.6353C42.369 54.6126 44.394 55.0335 46.7024 54.5791C49.006 54.1203 50.7187 52.9585 50.5246 51.9818C50.3304 51.005 48.3011 50.5816 45.9975 51.0404C43.6891 51.4997 41.9811 52.6585 42.1705 53.6353Z" fill="#F39D94"/>
<path d="M26.8765 56.6674C27.0707 57.6442 28.7354 58.136 30.5899 57.77C32.4444 57.3986 33.7975 56.3106 33.6033 55.3338C33.4091 54.3546 31.7444 53.8653 29.885 54.2313C28.031 54.6003 26.6828 55.6907 26.8765 56.6674Z" fill="#F39D94"/>
<path d="M29.6626 49.0917C30.486 48.9829 31.337 50.0257 31.5594 51.4098C31.7866 52.8007 31.2948 54.0115 30.4671 54.1159C29.6393 54.2246 28.7878 53.1886 28.5655 51.7977C28.348 50.4068 28.8349 49.1955 29.6626 49.0917Z" fill="#7F482E"/>
<path d="M43.9162 46.2579C44.7391 46.154 45.5906 47.1924 45.813 48.5853C46.0305 49.9737 45.5435 51.1845 44.7158 51.2933C43.8924 51.3952 43.0414 50.3568 42.819 48.9659C42.5962 47.5779 43.088 46.3671 43.9162 46.2579Z" fill="#7F482E"/>
<path d="M35.3345 48.3562C35.668 48.9519 35.4447 49.7349 35.4146 50.3782C35.368 51.3797 34.8704 52.2584 34.3305 53.0687C33.6751 54.0528 32.8071 55.0626 33.361 56.2879C34.2125 58.1706 37.7351 58.4857 39.4833 58.4988C39.8091 58.5012 41.4534 58.0856 40.6398 57.5113C40.5908 57.4764 40.5412 57.4419 40.4922 57.4069C39.9115 56.9972 38.761 56.9418 38.2857 57.5482C38.2546 57.588 38.2231 57.6278 38.192 57.6676C38.6226 57.5069 39.0527 57.3467 39.4833 57.186C38.0696 57.204 34.9801 57.0715 35.184 55.0349C35.3087 53.7887 36.5962 52.7439 36.8608 51.4739C37.0875 50.385 37.2196 48.9164 36.2311 48.1698C36.0739 48.0518 35.1364 48.0023 35.3345 48.3562Z" fill="#F2937C"/>
<path d="M42.5108 62.068C42.5108 62.068 39.5071 65.6159 35.8787 63.1797" stroke="#EE756D" stroke-width="4.989" stroke-miterlimit="10" stroke-linecap="round" stroke-linejoin="round"/>
<path d="M48.6058 44.163C46.8669 42.9795 44.9837 42.576 42.901 42.9455C41.3606 43.2183 38.5997 44.3509 38.339 46.0904C38.1919 47.072 40.5513 46.8735 40.9877 46.6278C41.9082 46.1108 42.4767 45.2554 43.3807 44.7068C44.5638 43.9892 45.9503 44.4495 47.1567 44.8733C47.4912 44.9913 49.3748 44.6864 48.6058 44.163Z" fill="#733014"/>
<path d="M26.5851 48.3876C27.4158 47.8934 28.3678 47.3633 29.3577 47.3337C30.3311 47.304 31.3545 47.9881 32.3162 48.174C32.6216 48.2333 34.8422 48.0206 34.2251 47.2385C33.1983 45.9374 30.9132 45.7369 29.3582 45.7554C27.5207 45.7767 25.9492 46.4423 24.8146 47.8822C24.332 48.4939 26.2836 48.5668 26.5851 48.3876Z" fill="#733014"/>
</g>
</svg>
