<svg width="90" height="90" viewBox="0 0 90 90" fill="none" xmlns="http://www.w3.org/2000/svg">
<mask id="mask0_63_2183" style="mask-type:alpha" maskUnits="userSpaceOnUse" x="0" y="0" width="90" height="90">
<rect width="90" height="90" fill="#D9D9D9"/>
</mask>
<g mask="url(#mask0_63_2183)">
<path d="M30.0531 73.6698C42.5893 79.3957 64.824 66.2871 71.9117 55.6054C80.7396 42.3007 79.6516 21.2359 63.9414 12.8143C49.8501 5.26073 20.1289 8.12891 13.4804 25.5171C10.8558 32.3819 13.689 44.1753 15.2709 51.1127C17.2793 59.9177 21.3109 69.6764 30.0531 73.6698Z" fill="#8B3A23"/>
<path d="M55.8465 89.1829H31.5121V60.1205H55.8465C55.8465 60.1205 53.2514 83.0173 55.8465 89.1829Z" fill="#F5A79C"/>
<path d="M54.7526 82.0537C54.5817 71.2949 55.8472 60.1205 55.8472 60.1205H31.5128V68.8435C37.6616 75.3413 44.2511 81.3076 54.7526 82.0537Z" fill="#F2937C"/>
<path d="M67.9005 42.5203C67.8366 51.5897 66.1958 67.4884 59.8662 73.2116C52.1897 80.1524 31.5171 68.5191 25.3443 61.338C17.6181 52.3555 16.9927 36.0603 19.2185 24.7678C21.7639 11.8963 34.3842 3.70795 47.4404 7.09448C60.4873 10.4766 67.9813 30.6282 67.9005 42.5203Z" fill="#F5A79C"/>
<path d="M19.5941 24.2008C20.137 21.7663 21.0416 19.5093 22.2372 17.4796L26.3857 46.9402L26.5709 58.2207L25.6309 61.8022C25.3463 61.4985 25.0797 61.197 24.8416 60.907C17.3317 51.742 17.0968 35.437 19.5941 24.2008Z" fill="#F2937C"/>
<path d="M14.964 39.8505C11.8025 43.7975 15.1399 53.9292 22.6601 56.5418C24.2092 54.3766 23.563 49.0963 23.4915 46.4597C23.4226 43.8718 23.2315 41.4078 21.4224 39.4103C20.8642 38.7974 17.3007 36.948 14.964 39.8505Z" fill="#F5A79C"/>
<path d="M20.4613 46.3772C20.4738 46.9125 20.5508 47.439 20.4924 47.9737C20.4716 48.166 20.2619 48.2982 20.1264 48.4124C19.8064 48.6822 19.8954 48.3228 20.5033 48.5626C20.0964 48.402 19.8774 47.5401 19.7599 47.1654C19.4497 46.1762 19.5901 44.6703 18.6883 43.9869C18.478 43.8274 18.0104 43.7903 17.8067 43.9869C17.3254 44.4512 17.4019 45.1285 17.527 45.7266C17.7182 46.6394 17.9558 47.6018 18.4474 48.4036C18.9171 49.17 19.8413 49.5032 20.7082 49.2579C21.1468 49.1339 21.4958 48.8766 21.7793 48.5227C22.272 47.9077 21.7787 47.0512 21.6072 46.3772C21.5127 46.0057 20.452 45.9702 20.4613 46.3772Z" fill="#F2937C"/>
<path d="M20.0865 43.9825C19.3601 42.594 16.9311 42.7666 16.1341 44.0027C14.756 46.1406 16.1478 49.2404 18.3086 50.2574C18.4523 50.3251 19.1667 50.3732 19.0373 50.0499C18.6598 49.1076 17.9197 48.3102 17.5144 47.3641C17.2522 46.7518 17.2697 46.0232 17.2872 45.3721C17.3134 44.4167 18.1912 43.1026 19.2219 44.1611C19.3787 44.3228 20.2564 44.3075 20.0865 43.9825Z" fill="#F2937C"/>
<path d="M29.8106 6.6853C30.6796 7.36152 31.3503 8.33651 31.784 9.24378C33.456 11.332 38.3911 20.0031 39.3093 21.326C41.7984 24.9125 38.9509 27.8943 36.4231 30.3572C35.6278 31.1317 34.8166 31.9008 34.0213 32.6851C31.63 35.0431 29.384 37.5366 28.1523 40.7309C27.3384 42.842 26.7343 48.6799 23.6864 48.9137C23.4996 45.8637 22.3695 39.6412 17.8501 38.8432C17.2837 38.6367 15.3676 38.8077 13.7748 42.2237C13.7748 42.2237 4.68851 12.562 29.8106 6.6853Z" fill="#8B3A23"/>
<path d="M40.2219 22.7376L29.8105 6.68545C33.6231 1.54338 47.2239 2.67788 47.2304 2.67788C51.9317 3.07006 70.3987 11.7614 76.3126 25.2977C76.3126 25.2977 84.739 45.1936 66.5987 57.8609C68.7748 44.4742 68.6847 35.755 63.4153 26.9992C60.025 28.1402 51.7771 27.2532 49.0111 25.9696C45.9785 24.5576 41.9824 23.3505 39.3098 21.3267" fill="#8B3A23"/>
<path d="M48.9564 48.9149C48.9564 50.1143 46.6601 51.0866 43.8285 51.0866C40.997 51.0866 38.7007 50.1143 38.7007 48.9149C38.7007 47.7148 40.997 46.7426 43.8285 46.7426C46.6601 46.7426 48.9564 47.7148 48.9564 48.9149Z" fill="#F2908E"/>
<path d="M67.7429 48.9149C67.7429 50.1143 65.8935 51.0866 63.6114 51.0866C61.3309 51.0866 59.4814 50.1143 59.4814 48.9149C59.4814 47.7148 61.3309 46.7426 63.6114 46.7426C65.8935 46.7426 67.7429 47.7148 67.7429 48.9149Z" fill="#F2908E"/>
<path d="M62.6758 40.6146C61.6768 40.6791 60.9137 42.1091 60.9776 43.8013C61.0366 45.4967 61.9007 46.8114 62.903 46.7421C63.9042 46.676 64.6651 45.2525 64.6045 43.5555C64.5379 41.8616 63.677 40.5442 62.6758 40.6146Z" fill="#7F482E"/>
<path d="M45.1723 40.6054C44.1716 40.6764 43.4102 42.0998 43.4724 43.7975C43.5363 45.4891 44.3988 46.8071 45.4011 46.7421C46.4007 46.67 47.1638 45.2428 47.0982 43.5511C47.037 41.854 46.1746 40.5415 45.1723 40.6054Z" fill="#7F482E"/>
<path d="M54.914 41.0702C54.0854 42.1304 54.6704 43.8029 55.1461 44.9156C55.7639 46.3603 57.1628 47.2277 57.9614 48.5386C59.5066 51.0747 54.4983 52.5358 52.8859 52.8417C53.2475 52.9422 53.6091 53.0427 53.9707 53.1437C53.6512 52.4637 52.6221 52.5473 52.2698 53.1437C51.9847 53.6255 53.1339 53.7205 53.3546 53.6752C55.4171 53.2513 58.5879 52.3299 59.4301 50.1499C59.9294 48.857 58.7512 47.7602 57.9395 46.9437C57.1726 46.1719 56.5002 45.4066 56.0337 44.4158C55.6421 43.5839 55.1363 42.0567 55.5367 41.1543C55.6454 40.9102 55.026 40.9271 54.914 41.0702Z" fill="#F2937C"/>
<path d="M50.5317 58.9582C50.5317 58.9582 54.9108 62.4474 58.6299 58.7173" stroke="#EE756D" stroke-width="2.9184" stroke-miterlimit="10" stroke-linecap="round" stroke-linejoin="round"/>
<path d="M40.8785 39.4959C42.279 38.5957 43.8035 37.8223 45.5164 38.0037C46.9076 38.1511 47.9875 39.1747 49.1668 39.8182C49.4464 39.9711 51.3538 39.9187 50.8737 39.3315C48.0754 35.9111 42.6695 36.4535 39.6741 39.1513C39.1727 39.6024 40.583 39.686 40.8785 39.4959Z" fill="#AF5040"/>
<path d="M67.5511 38.28C64.7152 36.3704 59.9905 36.407 57.6811 39.2511C57.1955 39.8493 59.1171 39.8777 59.388 39.7378C60.2128 39.3123 60.9397 38.7519 61.7787 38.3483C63.3185 37.6076 64.9818 38.0347 66.456 38.6935C66.7187 38.8114 68.0733 38.6317 67.5511 38.28Z" fill="#AF5040"/>
<path d="M25.2709 69.0209C13.8665 83.2673 4.80807 92.5584 6.67285 111.53C7.65221 121.484 12.2939 131.443 15.6302 140.814C17.8511 147.055 21.0536 152.253 27.3738 154.607C30.6304 155.819 34.6341 156.977 37.9688 155.353C42.9999 152.903 40.2651 148.191 38.4063 144.502C33.9852 135.72 30.2103 126.625 26.6578 117.463C23.7251 109.904 20.8608 101.604 22.9468 93.4449C24.8132 86.1453 32.2543 80.1702 31.512 72.2097C31.2192 69.0755 28.9371 68.5976 25.8018 67.9585L25.2709 69.0209Z" fill="#8B3A23"/>
</g>
</svg>
